<svg width="190" height="142" viewBox="0 0 190 142" fill="none" xmlns="http://www.w3.org/2000/svg">
<g clip-path="url(#clip0_1_62)">
<path d="M26.8122 105.611C25.1203 105.349 23.71 105.217 22.3446 104.895C20.1594 104.382 17.9382 103.917 15.8593 103.112C12.0161 101.632 9.49078 98.7433 8.78706 94.7184C7.23471 85.8553 8.64811 77.6438 15.5884 71.211C23.2316 64.126 36.5666 63.6353 44.8375 69.9187C45.565 70.4964 46.2379 71.1392 46.8481 71.839C49.0047 74.2017 51.629 74.9894 54.7194 74.2126C62.4143 72.2745 69.5444 68.9668 76.4641 65.1534C80.3878 62.9879 84.3519 60.9041 88.282 58.7519C97.4185 53.7478 106.122 48.102 113.855 41.0909C115.052 40.0044 115.952 38.4909 116.684 37.0244C118.02 34.345 119.132 31.5532 120.334 28.809C125.517 16.9346 135.056 11.1315 147.509 9.36257C152.108 8.70906 156.519 9.39706 160.828 11.0137C163.947 12.1893 165.615 14.4693 165.966 17.7342C166.372 21.5163 165.643 25.1444 164.357 28.691C163.493 31.0847 162.7 33.4957 161.788 36.1655C163.389 36.489 164.734 36.6764 166.032 37.0413C168.428 37.7087 170.88 38.2803 173.157 39.2461C176.902 40.8205 179.086 43.8319 179.387 47.8493C180.482 62.537 170.25 75.7888 154.456 75.6856C148.141 75.6469 142.627 73.3078 138.304 68.656C136.104 66.2919 133.516 65.4109 130.381 65.7113C124.719 66.261 119.406 68.0482 114.237 70.2488C99.7711 76.4151 86.5562 84.6052 74.77 95.0392C72.6875 96.8814 70.9921 99.0469 70.1563 101.764C68.9478 105.708 67.7537 109.655 66.5294 113.594C64.7088 119.67 60.9027 124.974 55.7174 128.66C51.4788 131.702 46.609 133.234 41.3779 133.554C38.2651 133.745 35.2028 133.699 32.2122 132.623C28.1063 131.145 25.6536 128.25 24.782 124.066C24.046 120.516 24.3437 116.957 25.1652 113.423C25.7488 110.909 26.2349 108.371 26.8122 105.611ZM24.4687 95.2674C25.9546 95.3393 27.0276 96.3496 27.7442 97.7261C30.2954 102.614 30.2707 107.753 29.1757 113.034C28.5722 115.955 27.9935 118.912 27.861 121.879C27.7056 125.279 29.4861 127.835 32.4273 129.551C34.4413 130.721 36.7843 131.207 39.1055 130.937C41.8389 130.666 44.5569 130.252 47.2484 129.699C51.9971 128.689 56.0305 126.319 58.725 122.24C60.4926 119.56 61.9055 116.617 63.2062 113.673C65.2913 108.948 65.2322 103.526 68.2182 98.7232L63.4947 101.058C63.8837 100.273 64.4458 99.5865 65.1388 99.0488C70.434 94.9631 75.7881 90.95 81.0493 86.8222C86.3105 82.6943 91.8101 79.0354 97.8833 76.2304C98.8163 75.7856 99.7205 75.2829 100.591 74.7252C107.918 70.1754 115.741 66.4741 123.905 63.6936C130.703 61.36 136.854 62.0271 142.517 66.4689C143.557 67.2857 144.625 68.0658 145.701 68.8288C146.776 69.5918 147.759 70.3256 148.849 70.9965C153.569 73.9508 158.458 74.0781 163.47 71.7153C171.614 67.8772 177.145 57.9454 176.096 49.0203C175.753 46.079 174.387 43.7616 171.887 42.1125C169.388 40.4633 166.544 39.7382 163.6 39.2984C161.989 39.0525 161.377 39.5221 161.65 41.1015C161.944 42.7888 162.558 44.419 163.008 45.9765C160.997 45.4823 159.868 44.4048 159.252 42.0641C158.329 38.5571 158.444 35.0946 159.809 31.6798C161.173 28.265 162.111 24.7795 162.121 21.0997C162.137 15.3754 159.229 11.0336 153.006 10.9333C150.846 10.9491 148.689 11.0938 146.545 11.3666C142.035 11.8322 137.676 12.9375 133.937 15.5823C126.137 21.1026 123.102 29.5681 120.047 38.2401L124.544 36.2668L124.76 36.658C124.388 37.0168 123.998 37.3563 123.591 37.6749C119.657 40.4587 115.726 43.2503 111.763 45.9959C106.099 49.9162 100.494 53.9287 94.7013 57.6475C91.1054 59.9558 87.2286 61.8293 83.4407 63.8293C77.2216 67.1194 71.0467 70.5122 64.7013 73.5403C61.5516 75.0577 58.2196 76.1625 54.7885 76.8269C50.1464 77.6987 45.8791 76.6414 42.9375 72.4836C41.7268 70.7678 40.0098 69.748 38.0081 69.2262C36.3084 68.7343 34.578 68.3523 32.828 68.0825C26.1949 67.2538 20.2201 68.7907 15.7228 73.9505C11.3066 79.021 10.4346 85.0866 11.3787 91.6052C12.2912 97.9066 16.1832 100.926 22.0271 102.112C22.7969 102.269 23.5791 102.371 24.3559 102.475C26.2155 102.723 26.7967 102.292 26.3765 100.428C25.9952 98.6627 25.134 97.0069 24.4687 95.2674Z" fill="#09E239"/>
<path d="M24.4685 95.2672C25.1364 97.0054 25.9976 98.6612 26.3921 100.42C26.8123 102.284 26.2312 102.715 24.3715 102.467C23.5947 102.363 22.81 102.256 22.0427 102.104C16.1989 100.918 12.3068 97.8986 11.3943 91.5972C10.4477 85.0734 11.3169 79.0156 15.7384 73.9425C20.2305 68.7722 26.2105 67.2457 32.8436 68.0745C34.5937 68.3443 36.324 68.7263 38.0237 69.2182C40.0254 69.74 41.7504 70.7558 42.9531 72.4756C45.8974 76.6386 50.1488 77.6973 54.8042 76.8189C58.2352 76.1545 61.5673 75.0497 64.7169 73.5323C71.0623 70.5042 77.2372 67.1114 83.4564 63.8213C87.2442 61.8213 91.121 59.9478 94.717 57.6395C100.51 53.9207 106.115 49.9082 111.779 45.9879C115.742 43.2423 119.671 40.448 123.607 37.6669C124.014 37.3483 124.404 37.0088 124.776 36.65L124.559 36.2588L120.063 38.2321C123.118 29.5601 126.152 21.0946 133.952 15.5743C137.692 12.9295 142.051 11.8242 146.561 11.3586C148.704 11.0858 150.862 10.9411 153.022 10.9253C159.245 11.0256 162.142 15.3727 162.137 21.0917C162.126 24.7715 161.183 28.2794 159.824 31.6718C158.465 35.0643 158.345 38.5491 159.267 42.0561C159.883 44.3968 161.013 45.4743 163.024 45.9685C162.582 44.4071 161.959 42.7808 161.666 41.0935C161.393 39.5141 162.005 39.0445 163.616 39.2904C166.552 39.7342 169.391 40.4513 171.912 42.1163C174.433 43.7813 175.778 46.0829 176.121 49.0242C177.16 57.9505 171.635 67.8928 163.477 71.7283C158.464 74.0911 153.575 73.9638 148.855 71.0096C147.776 70.3334 146.741 69.5863 145.707 68.8418C144.673 68.0974 143.555 67.283 142.523 66.4819C136.86 62.0401 130.709 61.373 123.912 63.7066C115.747 66.4872 107.925 70.1884 100.597 74.7382C99.7268 75.2959 98.8226 75.7987 97.8896 76.2434C91.8164 79.0485 86.3062 82.7192 81.0556 86.8352C75.8051 90.9512 70.4403 94.9762 65.145 99.0618C64.4521 99.5996 63.89 100.287 63.5009 101.071L68.2218 98.7376C65.2358 103.54 65.2949 108.962 63.2098 113.687C61.9065 116.626 60.4962 119.575 58.7287 122.254C56.0367 126.332 52.0034 128.702 47.252 129.713C44.5568 130.262 41.8353 130.671 39.0986 130.937C36.7775 131.207 34.4345 130.72 32.4205 129.55C29.4686 127.84 27.6988 125.279 27.8541 121.879C27.9906 118.92 28.5548 115.96 29.1689 113.034C30.2638 107.753 30.2832 102.617 27.7373 97.726C27.0247 96.3508 25.9517 95.3405 24.4685 95.2672Z" fill="white"/>
</g>
<defs>
<clipPath id="clip0_1_62">
<rect width="176.07" height="70.4282" fill="white" transform="translate(0 78.0142) rotate(-26.3009)"/>
</clipPath>
</defs>
</svg>
