<svg width="526" height="336" viewBox="0 0 526 336" fill="none" xmlns="http://www.w3.org/2000/svg">
<path d="M512.782 19.5541C512.99 19.0991 513.243 18.6543 513.606 18.3136C513.642 18.2782 513.68 18.2459 513.716 18.215C513.963 18.0129 514.268 17.8956 514.587 17.8804C514.906 17.8652 515.221 17.9528 515.487 18.1304C515.487 18.1304 515.491 18.1354 515.492 18.1367C516.267 18.6594 516.748 19.5257 517.032 20.4142C517.537 22.006 517.495 23.719 516.915 25.281C516.65 25.9847 516.261 26.6688 515.651 27.1106C515.041 27.5524 514.183 27.7042 513.524 27.3354C512.929 27.0019 512.609 26.331 512.405 25.6818C511.78 23.659 511.914 21.4798 512.782 19.5541Z" fill="#79AC53"/>
<path d="M505.602 29.7423C505.054 29.249 504.879 28.4654 504.822 27.7297C504.653 25.4464 505.325 23.1789 506.711 21.3533C507.041 20.9247 507.415 20.5174 507.883 20.2417C507.931 20.214 507.977 20.1895 508.025 20.1661C508.334 20.011 508.685 19.9594 509.026 20.0189C509.367 20.0785 509.679 20.246 509.917 20.4967C509.919 20.4985 509.921 20.5007 509.922 20.5033C510.614 21.2397 510.912 22.2682 510.997 23.2751C511.144 25.0743 510.683 26.8717 509.69 28.381C509.24 29.0626 508.659 29.6909 507.908 30.0117C507.157 30.3325 506.211 30.2914 505.602 29.7423Z" fill="#79AC53"/>
<path d="M497.609 25.2375C497.364 24.4541 497.466 23.602 497.692 22.814C498.195 21.0734 499.267 19.5537 500.736 18.4972C501.561 17.9082 502.541 17.4691 503.553 17.519C503.557 17.5188 503.56 17.5205 503.562 17.5194C503.909 17.5389 504.24 17.6691 504.507 17.8907C504.775 18.1124 504.964 18.4138 505.048 18.7508C505.061 18.8041 505.073 18.8571 505.082 18.9088C505.179 19.4445 505.113 19.9972 504.998 20.5297C504.509 22.7752 503.216 24.7616 501.363 26.1148C500.765 26.547 500.051 26.9216 499.318 26.8246C498.506 26.7143 497.854 26.0208 497.609 25.2375Z" fill="#79AC53"/>
<path d="M516.789 8.98466C517.895 9.6684 518.302 11.1613 518.006 12.4279C517.709 13.6945 516.836 14.7522 515.856 15.6057C514.097 17.1382 511.183 18.4099 508.863 18.586C508.251 18.6314 507.638 18.5205 507.082 18.2639C506.525 18.0073 506.043 17.6133 505.68 17.119C504.309 15.2386 503.391 12.1977 503.417 9.8646C503.431 8.56421 503.673 7.21415 504.444 6.1683C505.215 5.12244 506.618 4.4646 507.856 4.86154C509.487 5.38292 510.098 7.35168 511.766 8.12352C513.435 8.89536 515.333 8.08182 516.789 8.98466Z" fill="#79AC53"/>
<path d="M501.707 11.8152C501.709 11.8178 501.715 11.8166 501.716 11.8175C502.022 11.9056 502.292 12.0895 502.486 12.3424C502.68 12.5952 502.788 12.9035 502.794 13.222C502.797 13.2713 502.794 13.3183 502.792 13.369C502.768 13.8662 502.596 14.3467 502.384 14.7992C501.488 16.7073 499.923 18.2202 497.987 19.0527C497.361 19.3187 496.648 19.5079 496.008 19.2725C495.304 19.0101 494.864 18.2565 494.803 17.5066C494.743 16.7568 495.011 16.0164 495.373 15.3582C496.181 13.9039 497.452 12.7627 498.985 12.1163C499.844 11.7575 500.812 11.5645 501.707 11.8152Z" fill="#79AC53"/>
<path d="M445.012 78.5061C445.412 78.2056 445.846 77.9355 446.328 77.8095C446.377 77.7959 446.425 77.7854 446.472 77.7758C446.785 77.7159 447.11 77.7585 447.397 77.8973C447.684 78.0361 447.92 78.2638 448.069 78.5468C448.069 78.5468 448.069 78.5529 448.07 78.5546C448.501 79.3838 448.51 80.3747 448.336 81.2913C448.019 82.9307 447.165 84.4162 445.909 85.5116C445.341 86.0035 444.672 86.4185 443.925 86.5156C443.178 86.6126 442.352 86.3362 441.949 85.6977C441.585 85.1203 441.625 84.3784 441.755 83.7102C442.171 81.6345 443.33 79.7837 445.012 78.5061Z" fill="#79AC53"/>
<path d="M433.839 84.0301C433.593 83.3353 433.814 82.5633 434.114 81.8893C435.056 79.8025 436.729 78.1308 438.818 77.1884C439.313 76.9697 439.836 76.7904 440.379 76.7717C440.435 76.7701 440.487 76.7705 440.54 76.7729C440.886 76.7843 441.219 76.9066 441.49 77.1215C441.761 77.3365 441.955 77.6328 442.045 77.9666C442.046 77.9692 442.046 77.972 442.046 77.9747C442.302 78.9523 442.073 79.9983 441.667 80.9237C440.937 82.5745 439.674 83.9341 438.081 84.7858C437.36 85.1698 436.55 85.4446 435.736 85.3679C434.923 85.2912 434.111 84.8032 433.839 84.0301Z" fill="#79AC53"/>
<path d="M428.966 76.2555C429.125 75.4502 429.622 74.7506 430.197 74.1659C431.47 72.8769 433.137 72.0533 434.933 71.8265C435.938 71.7027 437.009 71.7849 437.874 72.3116C437.878 72.3135 437.88 72.3165 437.883 72.3166C438.177 72.499 438.406 72.7715 438.535 73.0939C438.665 73.4164 438.687 73.7718 438.6 74.1079C438.586 74.161 438.571 74.213 438.555 74.2631C438.384 74.7798 438.062 75.2341 437.707 75.647C436.205 77.3866 434.121 78.5147 431.846 78.8189C431.115 78.9133 430.308 78.9016 429.71 78.466C429.049 77.9815 428.808 77.0609 428.966 76.2555Z" fill="#79AC53"/>
<path d="M453.579 71.1326C454.225 72.2614 453.87 73.7675 453.004 74.7389C452.139 75.7102 450.866 76.2225 449.598 76.5048C447.32 77.0112 444.153 76.7376 442.03 75.7845C441.472 75.5324 440.986 75.1423 440.619 74.651C440.253 74.1597 440.017 73.5833 439.934 72.9759C439.627 70.6688 440.272 67.5586 441.409 65.5211C442.043 64.3854 442.9 63.3146 444.077 62.7638C445.253 62.2129 446.8 62.3048 447.698 63.2446C448.883 64.4817 448.48 66.5031 449.577 67.9778C450.675 69.4526 452.731 69.6441 453.579 71.1326Z" fill="#79AC53"/>
<path d="M438.976 66.4187C438.976 66.4219 438.982 66.4236 438.983 66.4251C439.21 66.6487 439.359 66.9392 439.409 67.254C439.459 67.5688 439.406 67.8912 439.259 68.1739C439.238 68.2184 439.213 68.2583 439.187 68.3018C438.929 68.7276 438.548 69.0674 438.146 69.3641C436.447 70.6124 434.35 71.195 432.252 71.0019C431.574 70.9367 430.857 70.7624 430.408 70.2503C429.914 69.6833 429.887 68.8111 430.192 68.1235C430.498 67.4358 431.086 66.913 431.719 66.5078C433.123 65.6156 434.785 65.2199 436.44 65.3836C437.366 65.4786 438.309 65.7709 438.976 66.4187Z" fill="#79AC53"/>
<path d="M357.357 116.434C357.855 116.387 358.366 116.383 358.843 116.528C358.892 116.542 358.939 116.558 358.984 116.574C359.282 116.687 359.536 116.893 359.708 117.161C359.881 117.43 359.963 117.747 359.942 118.066C359.942 118.066 359.939 118.072 359.939 118.073C359.873 119.005 359.363 119.855 358.736 120.546C357.609 121.778 356.104 122.598 354.461 122.876C353.72 122.998 352.932 123.002 352.245 122.695C351.557 122.387 350.997 121.72 350.987 120.965C350.979 120.283 351.4 119.671 351.861 119.169C353.3 117.617 355.255 116.644 357.357 116.434Z" fill="#79AC53"/>
<path d="M344.944 115.305C345.098 114.585 345.689 114.042 346.297 113.624C348.191 112.337 350.491 111.786 352.765 112.074C353.301 112.146 353.841 112.267 354.313 112.535C354.361 112.562 354.406 112.59 354.45 112.62C354.739 112.81 354.959 113.088 355.077 113.413C355.196 113.738 355.207 114.092 355.109 114.424C355.108 114.426 355.107 114.429 355.106 114.431C354.814 115.399 354.071 116.171 353.242 116.748C351.757 117.773 349.97 118.273 348.166 118.166C347.35 118.117 346.516 117.928 345.863 117.438C345.21 116.947 344.772 116.107 344.944 115.305Z" fill="#79AC53"/>
<path d="M344.852 106.131C345.408 105.527 346.198 105.19 346.993 104.992C348.752 104.558 350.604 104.727 352.253 105.472C353.176 105.892 354.046 106.522 354.508 107.423C354.51 107.426 354.51 107.43 354.513 107.431C354.669 107.741 354.721 108.093 354.663 108.435C354.605 108.778 354.438 109.093 354.188 109.334C354.149 109.372 354.108 109.408 354.069 109.442C353.653 109.794 353.141 110.013 352.622 110.179C350.433 110.878 348.066 110.75 345.968 109.821C345.295 109.519 344.614 109.088 344.331 108.404C344.021 107.646 344.296 106.735 344.852 106.131Z" fill="#79AC53"/>
<path d="M368.515 114.624C368.475 115.924 367.385 117.022 366.14 117.398C364.895 117.774 363.542 117.546 362.313 117.124C360.106 116.366 357.549 114.477 356.237 112.556C355.892 112.049 355.682 111.462 355.626 110.852C355.57 110.241 355.67 109.627 355.917 109.066C356.861 106.938 359.036 104.623 361.07 103.48C362.204 102.843 363.494 102.378 364.785 102.523C366.077 102.668 367.347 103.555 367.622 104.826C367.986 106.499 366.586 108.012 366.751 109.843C366.916 111.674 368.569 112.912 368.515 114.624Z" fill="#79AC53"/>
<path d="M358.526 102.974C358.525 102.977 358.529 102.981 358.529 102.983C358.606 103.292 358.581 103.618 358.459 103.912C358.337 104.207 358.124 104.454 357.851 104.619C357.81 104.645 357.767 104.666 357.722 104.69C357.28 104.918 356.778 105.009 356.28 105.052C354.179 105.228 352.087 104.629 350.398 103.368C349.855 102.959 349.335 102.435 349.219 101.764C349.095 101.022 349.527 100.265 350.147 99.8379C350.766 99.411 351.541 99.2728 352.293 99.258C353.956 99.231 355.58 99.762 356.905 100.766C357.645 101.331 358.296 102.073 358.526 102.974Z" fill="#79AC53"/>
<path d="M268.854 118.058C269.351 118.122 269.85 118.231 270.283 118.477C270.328 118.502 270.37 118.528 270.41 118.554C270.676 118.729 270.879 118.986 270.988 119.286C271.097 119.586 271.107 119.913 271.016 120.22C271.016 120.22 271.012 120.225 271.011 120.226C270.742 121.121 270.057 121.837 269.293 122.373C267.922 123.326 266.274 123.794 264.61 123.703C263.859 123.659 263.09 123.489 262.488 123.038C261.885 122.586 261.486 121.811 261.643 121.073C261.785 120.405 262.331 119.902 262.89 119.514C264.637 118.317 266.758 117.8 268.854 118.058Z" fill="#79AC53"/>
<path d="M256.996 114.22C257.305 113.551 258.001 113.152 258.687 112.879C260.818 112.041 263.183 112.01 265.337 112.793C265.844 112.982 266.344 113.218 266.746 113.584C266.787 113.621 266.824 113.658 266.86 113.696C267.1 113.946 267.253 114.266 267.297 114.609C267.342 114.952 267.274 115.3 267.105 115.601C267.104 115.604 267.102 115.606 267.1 115.608C266.602 116.487 265.708 117.077 264.772 117.456C263.097 118.13 261.244 118.223 259.508 117.721C258.723 117.493 257.951 117.125 257.422 116.502C256.893 115.88 256.652 114.964 256.996 114.22Z" fill="#79AC53"/>
<path d="M258.93 105.251C259.605 104.785 260.45 104.63 261.269 104.612C263.081 104.577 264.85 105.15 266.294 106.241C267.101 106.854 267.811 107.66 268.063 108.64C268.064 108.645 268.064 108.648 268.066 108.65C268.149 108.986 268.123 109.341 267.991 109.662C267.858 109.983 267.627 110.254 267.33 110.434C267.283 110.462 267.235 110.489 267.189 110.513C266.706 110.764 266.159 110.865 265.616 110.913C263.326 111.111 261.046 110.465 259.204 109.097C258.614 108.654 258.045 108.083 257.92 107.353C257.785 106.545 258.254 105.717 258.93 105.251Z" fill="#79AC53"/>
<path d="M280.137 118.753C279.811 120.012 278.506 120.843 277.209 120.935C275.911 121.028 274.642 120.507 273.537 119.824C271.551 118.598 269.473 116.192 268.618 114.028C268.393 113.458 268.317 112.839 268.397 112.232C268.477 111.624 268.711 111.046 269.075 110.554C270.465 108.687 273.097 106.909 275.333 106.242C276.579 105.871 277.941 105.701 279.168 106.128C280.395 106.554 281.439 107.699 281.427 108.999C281.413 110.712 279.713 111.879 279.471 113.701C279.228 115.523 280.567 117.095 280.137 118.753Z" fill="#79AC53"/>
<path d="M272.963 105.187C272.962 105.19 272.964 105.195 272.964 105.197C272.971 105.515 272.875 105.828 272.691 106.088C272.507 106.348 272.245 106.543 271.942 106.643C271.896 106.659 271.85 106.671 271.801 106.684C271.319 106.809 270.809 106.786 270.314 106.719C268.226 106.428 266.318 105.382 264.949 103.779C264.509 103.26 264.117 102.635 264.152 101.955C264.194 101.204 264.784 100.56 265.482 100.281C266.18 100.001 266.967 100.037 267.703 100.188C269.331 100.529 270.798 101.405 271.869 102.677C272.467 103.391 272.938 104.258 272.963 105.187Z" fill="#79AC53"/>
<path d="M184.647 103.386C185.043 103.693 185.417 104.042 185.666 104.473C185.692 104.517 185.714 104.561 185.736 104.604C185.876 104.89 185.92 105.214 185.862 105.528C185.803 105.842 185.645 106.129 185.411 106.347C185.411 106.347 185.406 106.349 185.404 106.35C184.718 106.984 183.764 107.253 182.834 107.326C181.169 107.451 179.511 107.017 178.124 106.093C177.5 105.674 176.924 105.137 176.634 104.442C176.344 103.747 176.394 102.877 176.904 102.321C177.365 101.818 178.092 101.662 178.77 101.612C180.883 101.468 182.973 102.099 184.647 103.386Z" fill="#79AC53"/>
<path d="M176.382 94.0575C176.988 93.638 177.79 93.648 178.52 93.7608C180.781 94.1214 182.833 95.2961 184.291 97.0642C184.633 97.4846 184.943 97.9422 185.104 98.4612C185.12 98.5139 185.133 98.5644 185.145 98.6164C185.225 98.9532 185.194 99.3066 185.058 99.6245C184.922 99.9424 184.687 100.208 184.388 100.382C184.386 100.383 184.384 100.384 184.381 100.385C183.505 100.89 182.436 100.943 181.436 100.795C179.651 100.524 178.008 99.6629 176.767 98.3492C176.207 97.7543 175.729 97.045 175.59 96.2402C175.45 95.4354 175.707 94.5239 176.382 94.0575Z" fill="#79AC53"/>
<path d="M182.603 87.3134C183.421 87.2549 184.227 87.5508 184.942 87.9513C186.52 88.8413 187.753 90.2336 188.444 91.9062C188.828 92.8442 189.03 93.8992 188.749 94.8718C188.748 94.8761 188.746 94.8789 188.746 94.8814C188.648 95.2138 188.445 95.5061 188.168 95.7155C187.89 95.9248 187.554 96.0402 187.206 96.0445C187.151 96.0449 187.097 96.0437 187.045 96.0413C186.501 96.0122 185.978 95.8211 185.487 95.5867C183.413 94.5948 181.777 92.8802 180.886 90.7657C180.603 90.0847 180.402 89.3038 180.665 88.612C180.959 87.8471 181.784 87.372 182.603 87.3134Z" fill="#79AC53"/>
<path d="M194.013 109.715C193.094 110.635 191.547 110.688 190.383 110.108C189.218 109.528 188.389 108.435 187.784 107.286C186.697 105.221 186.128 102.093 186.49 99.7947C186.586 99.1892 186.835 98.6181 187.213 98.1352C187.591 97.6524 188.085 97.2735 188.649 97.0343C190.794 96.1315 193.965 95.9368 196.23 96.4983C197.492 96.8113 198.75 97.3568 199.591 98.3474C200.432 99.338 200.75 100.855 200.079 101.968C199.196 103.436 197.14 103.578 196.005 105.025C194.871 106.471 195.227 108.506 194.013 109.715Z" fill="#79AC53"/>
<path d="M194.724 94.3861C194.721 94.3874 194.721 94.3932 194.72 94.3946C194.564 94.6723 194.323 94.8928 194.032 95.0235C193.741 95.1543 193.416 95.1885 193.105 95.1211C193.056 95.1121 193.011 95.0985 192.963 95.0848C192.484 94.948 192.056 94.6694 191.664 94.3598C190.013 93.0485 188.9 91.1786 188.535 89.1027C188.42 88.4322 188.4 87.6946 188.776 87.1265C189.193 86.501 190.027 86.246 190.771 86.3596C191.515 86.4732 192.174 86.9037 192.731 87.4079C193.961 88.5281 194.779 90.0277 195.056 91.6677C195.208 92.5864 195.174 93.5723 194.724 94.3861Z" fill="#79AC53"/>
<path d="M119.17 89.8785C119.667 89.8182 120.178 89.8015 120.659 89.9333C120.708 89.946 120.755 89.961 120.8 89.9762C121.102 90.0809 121.361 90.2798 121.54 90.5437C121.72 90.8076 121.81 91.1225 121.797 91.442C121.797 91.442 121.795 91.4478 121.795 91.4493C121.753 92.3831 121.266 93.2457 120.657 93.9526C119.563 95.2139 118.08 96.0734 116.445 96.3945C115.707 96.5361 114.92 96.5611 114.225 96.2718C113.53 95.9825 112.952 95.3299 112.922 94.5756C112.896 93.8935 113.301 93.271 113.748 92.7573C115.146 91.1678 117.075 90.144 119.17 89.8785Z" fill="#79AC53"/>
<path d="M106.732 89.0767C106.867 88.3522 107.444 87.7938 108.041 87.3604C109.9 86.0241 112.185 85.4126 114.465 85.6409C115.003 85.699 115.546 85.8053 116.026 86.0605C116.074 86.0867 116.119 86.1132 116.164 86.1418C116.458 86.3247 116.685 86.597 116.812 86.9187C116.94 87.2403 116.96 87.5941 116.87 87.9279C116.87 87.9306 116.869 87.9332 116.867 87.9355C116.601 88.9104 115.879 89.7017 115.065 90.3002C113.607 91.3648 111.834 91.911 110.028 91.852C109.212 91.8241 108.373 91.6571 107.707 91.1841C107.041 90.7111 106.582 89.8826 106.732 89.0767Z" fill="#79AC53"/>
<path d="M106.399 79.9076C106.939 79.2894 107.72 78.9321 108.509 78.7129C110.257 78.2331 112.112 78.3534 113.781 79.0545C114.714 79.4502 115.6 80.0568 116.086 80.9452C116.088 80.9489 116.088 80.9526 116.091 80.9539C116.255 81.2593 116.317 81.6096 116.267 81.9535C116.218 82.2973 116.06 82.6165 115.816 82.8641C115.778 82.903 115.738 82.9404 115.699 82.9757C115.293 83.3377 114.787 83.5703 114.273 83.7502C112.103 84.506 109.734 84.441 107.612 83.5673C106.931 83.2834 106.239 82.8703 105.938 82.1938C105.608 81.4438 105.859 80.5257 106.399 79.9076Z" fill="#79AC53"/>
<path d="M130.277 87.7759C130.271 89.0762 129.211 90.203 127.976 90.6117C126.741 91.0203 125.383 90.8278 124.143 90.4383C121.917 89.7381 119.311 87.9177 117.949 86.0309C117.591 85.5332 117.365 84.9526 117.294 84.3438C117.222 83.735 117.306 83.1179 117.538 82.5506C118.425 80.399 120.539 78.0279 122.542 76.8317C123.659 76.1649 124.936 75.666 126.231 75.7772C127.525 75.8884 128.819 76.7414 129.127 78.0043C129.535 79.668 128.175 81.217 128.388 83.0428C128.601 84.8687 130.286 86.0627 130.277 87.7759Z" fill="#79AC53"/>
<path d="M119.986 76.3923C119.985 76.3954 119.989 76.3996 119.989 76.4015C120.073 76.7085 120.058 77.0348 119.943 77.3323C119.829 77.6299 119.622 77.8829 119.354 78.0543C119.313 78.0821 119.272 78.1043 119.227 78.1289C118.791 78.3688 118.291 78.4725 117.795 78.5286C115.699 78.7603 113.592 78.2166 111.871 77.0001C111.317 76.605 110.783 76.0956 110.65 75.4275C110.506 74.6895 110.919 73.9208 111.527 73.4777C112.135 73.0347 112.906 72.8762 113.657 72.8416C115.318 72.7709 116.956 73.259 118.307 74.2283C119.062 74.7737 119.732 75.4979 119.986 76.3923Z" fill="#79AC53"/>
<path d="M70.7123 149.278C71.1219 148.99 71.565 148.735 72.0507 148.624C72.1001 148.612 72.1486 148.603 72.1959 148.595C72.5108 148.546 72.8334 148.599 73.1161 148.747C73.3988 148.895 73.6267 149.13 73.7663 149.418C73.7663 149.418 73.7669 149.424 73.7671 149.426C74.1711 150.269 74.1479 151.259 73.9441 152.17C73.574 153.798 72.6719 155.255 71.3814 156.309C70.797 156.782 70.1148 157.175 69.3652 157.248C68.6157 157.32 67.7986 157.017 67.417 156.366C67.0719 155.777 67.1359 155.037 67.2877 154.373C67.7716 152.312 68.9895 150.5 70.7123 149.278Z" fill="#79AC53"/>
<path d="M59.3653 154.435C59.1425 153.732 59.388 152.968 59.7104 152.304C60.7198 150.249 62.4462 148.633 64.565 147.759C65.067 147.557 65.5957 147.394 66.139 147.393C66.1942 147.394 66.2463 147.396 66.2994 147.4C66.6448 147.422 66.9737 147.555 67.2375 147.779C67.5013 148.003 67.686 148.305 67.7643 148.642C67.7652 148.645 67.7655 148.647 67.7652 148.65C67.9899 149.635 67.7267 150.673 67.2909 151.585C66.5072 153.211 65.201 154.529 63.5805 155.328C62.8474 155.689 62.0288 155.937 61.2185 155.834C60.4083 155.731 59.6127 155.217 59.3653 154.435Z" fill="#79AC53"/>
<path d="M54.7486 146.506C54.9334 145.706 55.4532 145.023 56.0463 144.457C57.361 143.211 59.0543 142.442 60.856 142.273C61.8654 142.183 62.9332 142.3 63.7801 142.854C63.7841 142.856 63.786 142.859 63.7885 142.859C64.0773 143.051 64.2971 143.331 64.4157 143.658C64.5343 143.984 64.5454 144.34 64.4474 144.673C64.4317 144.726 64.4146 144.777 64.3969 144.827C64.2092 145.338 63.8728 145.781 63.5042 146.182C61.9465 147.872 59.8266 148.932 57.5436 149.162C56.8094 149.232 56.004 149.194 55.4201 148.739C54.7754 148.234 54.5638 147.306 54.7486 146.506Z" fill="#79AC53"/>
<path d="M79.5155 142.187C80.1237 143.336 79.7198 144.83 78.8233 145.773C77.9269 146.715 76.6384 147.186 75.3617 147.427C73.0685 147.859 69.9121 147.482 67.8213 146.46C67.2709 146.19 66.7982 145.785 66.4477 145.282C66.0972 144.779 65.8805 144.195 65.8178 143.585C65.5858 141.269 66.332 138.182 67.5346 136.182C68.2049 135.068 69.0963 134.026 70.2904 133.513C71.4844 133.001 73.0275 133.143 73.8946 134.112C75.0384 135.387 74.5694 137.394 75.6182 138.904C76.6669 140.413 78.7161 140.672 79.5155 142.187Z" fill="#79AC53"/>
<path d="M65.073 137C65.0733 137.003 65.0789 137.005 65.0799 137.007C65.2994 137.238 65.4392 137.533 65.4787 137.849C65.5182 138.165 65.4554 138.486 65.2994 138.764C65.2765 138.807 65.2503 138.847 65.2228 138.889C64.9513 139.306 64.5593 139.634 64.1481 139.917C62.4093 141.109 60.2948 141.623 58.2033 141.362C57.5286 141.275 56.8176 141.077 56.3852 140.551C55.9101 139.968 55.9117 139.095 56.239 138.418C56.5663 137.741 57.1715 137.237 57.8173 136.853C59.2496 136.007 60.9236 135.666 62.5725 135.883C63.4952 136.008 64.4274 136.331 65.073 137Z" fill="#79AC53"/>
<path d="M63.8868 210.641C64.0332 210.163 64.2254 209.689 64.5407 209.303C64.5723 209.263 64.605 209.226 64.6374 209.191C64.8553 208.958 65.1423 208.802 65.4563 208.745C65.7703 208.688 66.0947 208.733 66.3816 208.874C66.3816 208.874 66.3859 208.879 66.3871 208.88C67.2239 209.296 67.8146 210.092 68.2136 210.935C68.9227 212.447 69.1069 214.151 68.737 215.775C68.5669 216.508 68.2705 217.237 67.7241 217.755C67.1776 218.273 66.3467 218.536 65.6454 218.257C65.0111 218.005 64.6065 217.382 64.3183 216.765C63.4328 214.842 63.2793 212.664 63.8868 210.641Z" fill="#79AC53"/>
<path d="M58.108 221.685C57.5004 221.268 57.2241 220.514 57.0702 219.792C56.603 217.551 56.9709 215.215 58.1047 213.223C58.3762 212.754 58.6935 212.301 59.1213 211.967C59.165 211.933 59.2074 211.903 59.2518 211.873C59.5382 211.679 59.8793 211.581 60.2249 211.596C60.5704 211.61 60.9021 211.735 61.1708 211.952C61.1731 211.954 61.1751 211.956 61.1765 211.958C61.9595 212.597 62.3901 213.578 62.6068 214.564C62.9884 216.329 62.7684 218.171 61.9818 219.798C61.625 220.533 61.1321 221.232 60.4296 221.649C59.7271 222.065 58.7836 222.149 58.108 221.685Z" fill="#79AC53"/>
<path d="M49.5922 218.269C49.2463 217.525 49.2363 216.667 49.3563 215.856C49.6266 214.064 50.4894 212.417 51.807 211.176C52.5472 210.484 53.4613 209.92 54.4702 209.837C54.4746 209.836 54.4781 209.837 54.4801 209.836C54.8258 209.81 55.1712 209.895 55.4654 210.08C55.7597 210.264 55.9873 210.538 56.1149 210.861C56.1348 210.912 56.153 210.963 56.1694 211.013C56.3355 211.532 56.3428 212.088 56.2987 212.631C56.1091 214.922 55.0885 217.061 53.4292 218.646C52.8936 219.153 52.2351 219.618 51.4949 219.618C50.6755 219.615 49.9381 219.014 49.5922 218.269Z" fill="#79AC53"/>
<path d="M66.4706 199.637C67.6568 200.169 68.2566 201.596 68.1291 202.89C68.0016 204.185 67.2746 205.348 66.4158 206.323C64.8728 208.074 62.1517 209.717 59.8746 210.197C59.2744 210.322 58.6522 210.293 58.0666 210.111C57.4809 209.93 56.951 209.603 56.5267 209.161C54.92 207.477 53.6103 204.583 53.3296 202.266C53.1732 200.975 53.2355 199.605 53.8623 198.467C54.4891 197.329 55.7935 196.493 57.0729 196.723C58.7589 197.026 59.6229 198.897 61.3782 199.443C63.1335 199.989 64.9085 198.933 66.4706 199.637Z" fill="#79AC53"/>
<path d="M51.891 204.425C51.8933 204.427 51.8988 204.425 51.9006 204.426C52.2156 204.473 52.5074 204.62 52.733 204.845C52.9585 205.07 53.1061 205.362 53.1538 205.677C53.1626 205.725 53.166 205.772 53.1705 205.823C53.2129 206.319 53.1048 206.818 52.9548 207.294C52.3165 209.303 50.9647 211.009 49.1545 212.088C48.5687 212.434 47.8865 212.716 47.2219 212.566C46.4888 212.399 45.9537 211.71 45.7954 210.974C45.6371 210.239 45.805 209.47 46.078 208.769C46.6875 207.222 47.7979 205.923 49.2322 205.081C50.0368 204.612 50.9705 204.294 51.891 204.425Z" fill="#79AC53"/>
<path d="M48.9767 300.482C49.1231 300.004 49.3153 299.529 49.6306 299.144C49.6622 299.104 49.6949 299.067 49.7273 299.032C49.9452 298.799 50.2322 298.643 50.5462 298.586C50.8603 298.529 51.1846 298.574 51.4716 298.715C51.4716 298.715 51.4759 298.72 51.477 298.721C52.3138 299.137 52.9046 299.933 53.3036 300.776C54.0126 302.288 54.1968 303.991 53.827 305.616C53.6569 306.348 53.3605 307.078 52.814 307.596C52.2675 308.114 51.4367 308.377 50.7354 308.098C50.1011 307.846 49.6965 307.223 49.4083 306.606C48.5227 304.683 48.3693 302.505 48.9767 300.482Z" fill="#79AC53"/>
<path d="M43.1979 311.525C42.5903 311.108 42.314 310.355 42.1602 309.633C41.693 307.392 42.0608 305.055 43.1946 303.064C43.4661 302.595 43.7834 302.142 44.2113 301.807C44.2549 301.774 44.2973 301.743 44.3417 301.714C44.6281 301.519 44.9692 301.422 45.3148 301.436C45.6604 301.451 45.992 301.576 46.2607 301.793C46.263 301.794 46.265 301.796 46.2664 301.799C47.0495 302.438 47.48 303.418 47.6967 304.405C48.0784 306.17 47.8583 308.012 47.0717 309.639C46.715 310.374 46.222 311.073 45.5195 311.489C44.8171 311.906 43.8735 311.99 43.1979 311.525Z" fill="#79AC53"/>
<path d="M34.6821 308.11C34.3362 307.366 34.3262 306.507 34.4462 305.697C34.7166 303.905 35.5793 302.258 36.897 301.017C37.6371 300.325 38.5512 299.761 39.5602 299.677C39.5645 299.677 39.568 299.678 39.57 299.676C39.9158 299.65 40.2611 299.736 40.5554 299.92C40.8496 300.105 41.0773 300.379 41.2048 300.702C41.2247 300.753 41.2429 300.804 41.2594 300.854C41.4254 301.372 41.4328 301.929 41.3886 302.472C41.199 304.762 40.1785 306.901 38.5192 308.486C37.9835 308.993 37.325 309.459 36.5848 309.459C35.7654 309.456 35.028 308.854 34.6821 308.11Z" fill="#79AC53"/>
<path d="M51.5605 289.478C52.7468 290.01 53.3466 291.437 53.219 292.731C53.0915 294.026 52.3646 295.189 51.5057 296.164C49.9627 297.914 47.2417 299.558 44.9646 300.037C44.3643 300.163 43.7422 300.133 43.1565 299.952C42.5709 299.771 42.041 299.444 41.6167 299.001C40.01 297.317 38.7003 294.424 38.4196 292.107C38.2631 290.816 38.3254 289.446 38.9522 288.308C39.579 287.17 40.8835 286.333 42.1628 286.564C43.8488 286.867 44.7128 288.738 46.4681 289.284C48.2234 289.83 49.9985 288.774 51.5605 289.478Z" fill="#79AC53"/>
<path d="M36.9809 294.266C36.9832 294.268 36.9888 294.266 36.9905 294.267C37.3055 294.314 37.5973 294.461 37.8229 294.686C38.0485 294.911 38.196 295.202 38.2437 295.517C38.2526 295.566 38.256 295.613 38.2604 295.663C38.3028 296.159 38.1947 296.658 38.0447 297.135C37.4064 299.144 36.0547 300.85 34.2444 301.929C33.6587 302.275 32.9765 302.557 32.3118 302.407C31.5787 302.24 31.0436 301.55 30.8853 300.815C30.727 300.08 30.8949 299.31 31.1679 298.61C31.7774 297.062 32.8879 295.764 34.3221 294.922C35.1267 294.453 36.0604 294.135 36.9809 294.266Z" fill="#79AC53"/>
<path d="M480.673 35.4929C480.881 35.0378 481.134 34.593 481.497 34.2523C481.534 34.2169 481.571 34.1847 481.608 34.1538C481.854 33.9517 482.16 33.8344 482.478 33.8191C482.797 33.8039 483.113 33.8915 483.379 34.0691C483.379 34.0691 483.382 34.0741 483.383 34.0754C484.158 34.5981 484.639 35.4644 484.924 36.3529C485.428 37.9447 485.387 39.6578 484.807 41.2197C484.542 41.9234 484.152 42.6075 483.542 43.0493C482.932 43.4911 482.074 43.6429 481.416 43.2741C480.82 42.9406 480.501 42.2698 480.296 41.6205C479.671 39.5977 479.805 37.4185 480.673 35.4929Z" fill="#79AC53"/>
<path d="M473.493 45.681C472.946 45.1877 472.771 44.4041 472.713 43.6685C472.545 41.3851 473.216 39.1176 474.602 37.292C474.933 36.8634 475.307 36.4561 475.775 36.1805C475.823 36.1527 475.869 36.1282 475.917 36.1049C476.226 35.9497 476.577 35.8981 476.918 35.9577C477.258 36.0172 477.571 36.1847 477.808 36.4354C477.811 36.4372 477.812 36.4394 477.813 36.442C478.506 37.1784 478.804 38.207 478.889 39.2138C479.035 41.013 478.575 42.8104 477.581 44.3197C477.131 45.0013 476.551 45.6296 475.799 45.9504C475.048 46.2712 474.102 46.2301 473.493 45.681Z" fill="#79AC53"/>
<path d="M465.5 41.1762C465.255 40.3928 465.358 39.5407 465.583 38.7527C466.087 37.0121 467.159 35.4924 468.628 34.4359C469.453 33.847 470.433 33.4078 471.444 33.4578C471.448 33.4576 471.452 33.4592 471.454 33.4581C471.8 33.4776 472.131 33.6078 472.399 33.8294C472.666 34.0511 472.856 34.3525 472.94 34.6895C472.953 34.7428 472.964 34.7959 472.974 34.8475C473.07 35.3832 473.004 35.936 472.889 36.4684C472.4 38.714 471.108 40.7003 469.254 42.0535C468.657 42.4857 467.943 42.8604 467.209 42.7633C466.397 42.653 465.745 41.9596 465.5 41.1762Z" fill="#79AC53"/>
<path d="M484.681 24.9234C485.787 25.6071 486.194 27.1 485.897 28.3666C485.601 29.6332 484.727 30.6909 483.748 31.5444C481.988 33.0769 479.075 34.3486 476.754 34.5248C476.143 34.5701 475.53 34.4593 474.973 34.2026C474.416 33.946 473.934 33.552 473.572 33.0578C472.2 31.1773 471.282 28.1364 471.308 25.8033C471.323 24.5029 471.565 23.1529 472.335 22.107C473.106 21.0612 474.509 20.4033 475.747 20.8003C477.379 21.3216 477.99 23.2904 479.658 24.0622C481.326 24.8341 483.225 24.0205 484.681 24.9234Z" fill="#79AC53"/>
<path d="M469.598 27.7539C469.6 27.7566 469.606 27.7554 469.608 27.7562C469.914 27.8443 470.184 28.0282 470.378 28.2811C470.572 28.5339 470.68 28.8422 470.686 29.1607C470.688 29.21 470.685 29.2571 470.683 29.3077C470.66 29.8049 470.487 30.2854 470.276 30.738C469.379 32.646 467.815 34.1589 465.878 34.9914C465.252 35.2574 464.539 35.4466 463.9 35.2112C463.195 34.9488 462.755 34.1952 462.695 33.4453C462.635 32.6955 462.902 31.9551 463.265 31.2969C464.072 29.8427 465.344 28.7014 466.876 28.055C467.736 27.6963 468.703 27.5033 469.598 27.7539Z" fill="#79AC53"/>
<path d="M409.189 77.1807C409.589 76.8802 410.024 76.6101 410.506 76.4841C410.555 76.4705 410.603 76.4599 410.65 76.4503C410.963 76.3905 411.287 76.4331 411.575 76.5719C411.862 76.7107 412.097 76.9384 412.246 77.2214C412.246 77.2214 412.247 77.2275 412.247 77.2291C412.679 78.0584 412.688 79.0492 412.514 79.9659C412.197 81.6053 411.343 83.0907 410.087 84.1862C409.518 84.678 408.849 85.0931 408.103 85.1901C407.356 85.2871 406.529 85.0108 406.127 84.3723C405.763 83.7948 405.802 83.053 405.933 82.3848C406.349 80.309 407.507 78.4582 409.189 77.1807Z" fill="#79AC53"/>
<path d="M398.016 82.7047C397.771 82.0098 397.991 81.2378 398.292 80.5639C399.234 78.4771 400.907 76.8054 402.996 75.863C403.491 75.6443 404.014 75.465 404.557 75.4463C404.612 75.4446 404.664 75.4451 404.718 75.4475C405.064 75.4589 405.397 75.5811 405.668 75.7961C405.939 76.011 406.133 76.3073 406.222 76.6412C406.223 76.6438 406.224 76.6465 406.223 76.6493C406.48 77.6269 406.251 78.6729 405.845 79.5982C405.115 81.2491 403.852 82.6086 402.258 83.4604C401.537 83.8444 400.727 84.1192 399.914 84.0425C399.101 83.9657 398.289 83.4778 398.016 82.7047Z" fill="#79AC53"/>
<path d="M393.144 74.9301C393.303 74.1248 393.8 73.4252 394.374 72.8405C395.648 71.5514 397.315 70.7278 399.11 70.501C400.116 70.3773 401.187 70.4594 402.052 70.9861C402.056 70.988 402.058 70.9911 402.06 70.9911C402.355 71.1736 402.584 71.446 402.713 71.7685C402.842 72.0909 402.865 72.4464 402.778 72.7825C402.764 72.8356 402.749 72.8876 402.732 72.9376C402.561 73.4544 402.24 73.9086 401.884 74.3215C400.383 76.0612 398.298 77.1892 396.024 77.4934C395.292 77.5879 394.486 77.5762 393.888 77.1406C393.227 76.656 392.985 75.7354 393.144 74.9301Z" fill="#79AC53"/>
<path d="M417.757 69.8071C418.402 70.936 418.047 72.4421 417.182 73.4134C416.317 74.3848 415.044 74.8971 413.776 75.1793C411.498 75.6858 408.331 75.4122 406.208 74.459C405.649 74.2069 405.164 73.8169 404.797 73.3256C404.43 72.8343 404.195 72.2579 404.112 71.6505C403.805 69.3434 404.45 66.2331 405.587 64.1956C406.221 63.06 407.078 61.9892 408.254 61.4383C409.431 60.8874 410.978 60.9793 411.876 61.9191C413.061 63.1563 412.657 65.1777 413.755 66.6524C414.852 68.1271 416.909 68.3187 417.757 69.8071Z" fill="#79AC53"/>
<path d="M403.153 65.0932C403.154 65.0965 403.159 65.0982 403.16 65.0997C403.387 65.3232 403.537 65.6137 403.586 65.9285C403.636 66.2433 403.584 66.5658 403.437 66.8485C403.416 66.8929 403.391 66.9329 403.365 66.9764C403.107 67.4022 402.726 67.7419 402.324 68.0386C400.625 69.287 398.528 69.8695 396.429 69.6765C395.752 69.6113 395.035 69.437 394.586 68.9249C394.092 68.3579 394.065 67.4857 394.37 66.798C394.675 66.1104 395.264 65.5876 395.897 65.1824C397.301 64.2902 398.963 63.8944 400.618 64.0582C401.544 64.1532 402.486 64.4455 403.153 65.0932Z" fill="#79AC53"/>
<path d="M327.506 96.5853C328.004 96.538 328.516 96.5348 328.993 96.6792C329.042 96.6932 329.088 96.7094 329.133 96.7258C329.432 96.8384 329.686 97.044 329.858 97.3125C330.031 97.5811 330.112 97.8982 330.092 98.2173C330.092 98.2173 330.089 98.223 330.088 98.2245C330.023 99.1569 329.513 100.006 328.885 100.697C327.759 101.929 326.254 102.749 324.611 103.027C323.869 103.15 323.082 103.154 322.395 102.846C321.707 102.539 321.147 101.871 321.137 101.117C321.128 100.434 321.55 99.8223 322.01 99.3206C323.45 97.7683 325.405 96.7956 327.506 96.5853Z" fill="#79AC53"/>
<path d="M315.094 95.4568C315.247 94.7361 315.839 94.1931 316.447 93.7755C318.341 92.4885 320.641 91.9373 322.914 92.2254C323.451 92.2977 323.99 92.4182 324.463 92.686C324.511 92.7134 324.555 92.741 324.599 92.7709C324.888 92.9614 325.109 93.2396 325.227 93.5645C325.346 93.8893 325.357 94.2436 325.258 94.5749C325.258 94.5776 325.257 94.5802 325.255 94.5824C324.963 95.55 324.221 96.3221 323.392 96.8989C321.906 97.9248 320.119 98.4243 318.316 98.3178C317.5 98.2684 316.666 98.0794 316.013 97.5891C315.359 97.0988 314.922 96.2585 315.094 95.4568Z" fill="#79AC53"/>
<path d="M315.002 86.2821C315.558 85.6784 316.347 85.3417 317.143 85.1433C318.902 84.7097 320.754 84.8787 322.403 85.6234C323.325 86.0435 324.196 86.6732 324.658 87.574C324.66 87.5778 324.66 87.5814 324.662 87.5828C324.818 87.8924 324.871 88.2443 324.813 88.5867C324.754 88.9291 324.588 89.244 324.338 89.4851C324.298 89.5231 324.258 89.5594 324.218 89.5936C323.802 89.9449 323.291 90.164 322.772 90.3304C320.583 91.0289 318.216 90.9016 316.118 89.9725C315.445 89.6708 314.764 89.2396 314.481 88.5555C314.171 87.7971 314.446 86.8859 315.002 86.2821Z" fill="#79AC53"/>
<path d="M338.664 94.7753C338.625 96.075 337.535 97.1736 336.29 97.5496C335.044 97.9256 333.692 97.6975 332.463 97.2755C330.256 96.517 327.699 94.6289 326.387 92.7069C326.042 92.1999 325.832 91.6136 325.776 91.0031C325.72 90.3926 325.82 89.778 326.067 89.217C327.011 87.0894 329.186 84.7747 331.22 83.6315C332.354 82.9944 333.644 82.5292 334.935 82.6744C336.226 82.8196 337.497 83.7063 337.772 84.9769C338.136 86.6507 336.735 88.1634 336.9 89.9942C337.065 91.825 338.719 93.0629 338.664 94.7753Z" fill="#79AC53"/>
<path d="M328.676 83.1252C328.675 83.1282 328.679 83.1326 328.679 83.1344C328.755 83.4436 328.731 83.7694 328.609 84.0638C328.487 84.3582 328.274 84.6058 328.001 84.77C327.959 84.7967 327.917 84.8178 327.872 84.8412C327.43 85.0696 326.927 85.1601 326.43 85.2031C324.329 85.3797 322.237 84.7808 320.548 83.5195C320.005 83.11 319.485 82.5867 319.369 81.9154C319.244 81.1738 319.677 80.4162 320.297 79.9893C320.916 79.5624 321.691 79.4242 322.442 79.4094C324.106 79.3823 325.729 79.9134 327.055 80.9179C327.795 81.4828 328.446 82.2244 328.676 83.1252Z" fill="#79AC53"/>
<path d="M250.704 90.9168C251.2 90.9806 251.7 91.0903 252.133 91.3362C252.177 91.3607 252.219 91.3867 252.26 91.4127C252.526 91.5883 252.728 91.8449 252.837 92.1449C252.946 92.4448 252.956 92.7722 252.865 93.0788C252.865 93.0788 252.862 93.0838 252.861 93.0851C252.591 93.9801 251.906 94.6962 251.142 95.2315C249.771 96.1848 248.123 96.6531 246.459 96.5619C245.709 96.5174 244.94 96.348 244.337 95.8965C243.734 95.445 243.335 94.6703 243.492 93.9321C243.634 93.2643 244.18 92.7607 244.74 92.3728C246.486 91.1763 248.607 90.6585 250.704 90.9168Z" fill="#79AC53"/>
<path d="M238.845 87.0789C239.154 86.4098 239.851 86.0106 240.536 85.7374C242.667 84.8997 245.032 84.8692 247.186 85.6517C247.694 85.8405 248.193 86.077 248.595 86.4424C248.636 86.4798 248.673 86.5165 248.71 86.5553C248.949 86.8049 249.103 87.1248 249.147 87.4678C249.191 87.8108 249.124 88.1588 248.955 88.4602C248.953 88.4628 248.952 88.465 248.95 88.4668C248.452 89.3463 247.558 89.9357 246.621 90.3154C244.946 90.9885 243.093 91.0816 241.357 90.58C240.573 90.352 239.801 89.9837 239.272 89.3613C238.743 88.739 238.501 87.823 238.845 87.0789Z" fill="#79AC53"/>
<path d="M240.779 78.1098C241.455 77.6436 242.299 77.4893 243.118 77.4711C244.93 77.4361 246.699 78.0093 248.143 79.0994C248.95 79.7126 249.66 80.5187 249.912 81.4992C249.914 81.5034 249.913 81.507 249.915 81.5088C249.999 81.8452 249.973 82.2 249.84 82.5211C249.708 82.8423 249.476 83.1127 249.179 83.2928C249.132 83.321 249.085 83.3476 249.038 83.3722C248.555 83.6231 248.008 83.724 247.465 83.7719C245.176 83.9704 242.895 83.3243 241.054 81.9554C240.464 81.5127 239.895 80.9419 239.77 80.2123C239.634 79.4042 240.104 78.576 240.779 78.1098Z" fill="#79AC53"/>
<path d="M261.986 91.612C261.661 92.871 260.356 93.7022 259.058 93.7944C257.76 93.8865 256.491 93.3657 255.386 92.6831C253.401 91.4567 251.323 89.0511 250.467 86.8871C250.242 86.3165 250.167 85.6983 250.247 85.0905C250.327 84.4827 250.56 83.9053 250.925 83.4126C252.314 81.5455 254.947 79.7675 257.183 79.101C258.429 78.7295 259.79 78.5604 261.017 78.9867C262.245 79.413 263.289 80.5581 263.277 81.8581C263.262 83.5709 261.563 84.7376 261.32 86.5597C261.077 88.3818 262.417 89.9538 261.986 91.612Z" fill="#79AC53"/>
<path d="M254.813 78.0461C254.811 78.0487 254.814 78.0538 254.814 78.0556C254.82 78.3741 254.724 78.6864 254.54 78.9467C254.356 79.207 254.094 79.4014 253.792 79.5015C253.745 79.5184 253.699 79.5296 253.65 79.5425C253.169 79.6678 252.659 79.6452 252.164 79.5775C250.076 79.2864 248.167 78.2409 246.798 76.6382C246.359 76.119 245.966 75.4939 246.002 74.8136C246.044 74.0628 246.633 73.4193 247.331 73.1395C248.03 72.8597 248.816 72.8958 249.552 73.047C251.18 73.3874 252.647 74.2635 253.719 75.5356C254.316 76.2498 254.787 77.1166 254.813 78.0461Z" fill="#79AC53"/>
<path d="M176.911 72.3493C177.306 72.6562 177.681 73.0045 177.929 73.4363C177.955 73.48 177.978 73.5237 177.999 73.5667C178.139 73.853 178.183 74.1769 178.125 74.4907C178.067 74.8044 177.909 75.0914 177.675 75.3094C177.675 75.3094 177.669 75.3119 177.668 75.3125C176.981 75.9465 176.027 76.2157 175.097 76.2886C173.432 76.4136 171.774 75.9798 170.387 75.0563C169.763 74.6368 169.187 74.1004 168.897 73.4053C168.607 72.7103 168.657 71.8402 169.167 71.284C169.629 70.7809 170.355 70.6244 171.034 70.5744C173.146 70.4308 175.236 71.062 176.911 72.3493Z" fill="#79AC53"/>
<path d="M168.645 63.0204C169.251 62.6009 170.054 62.6108 170.783 62.7237C173.044 63.0843 175.096 64.259 176.555 66.0271C176.896 66.4475 177.206 66.9051 177.367 67.424C177.383 67.4768 177.396 67.5273 177.408 67.5793C177.488 67.916 177.458 68.2695 177.321 68.5874C177.185 68.9053 176.95 69.1708 176.652 69.3446C176.649 69.3463 176.647 69.3474 176.644 69.3479C175.768 69.8524 174.699 69.9061 173.699 69.7576C171.915 69.4867 170.271 68.6258 169.031 67.312C168.471 66.7172 167.993 66.0078 167.853 65.2031C167.713 64.3983 167.971 63.4868 168.645 63.0204Z" fill="#79AC53"/>
<path d="M174.866 56.2763C175.685 56.2178 176.49 56.5137 177.205 56.9142C178.784 57.8042 180.017 59.1965 180.707 60.8691C181.091 61.8071 181.293 62.8621 181.012 63.8347C181.011 63.839 181.009 63.8418 181.01 63.8443C180.911 64.1766 180.708 64.469 180.431 64.6784C180.154 64.8877 179.817 65.003 179.47 65.0074C179.415 65.0078 179.361 65.0066 179.308 65.0042C178.765 64.9751 178.242 64.784 177.75 64.5496C175.677 63.5577 174.041 61.8431 173.15 59.7286C172.866 59.0476 172.666 58.2667 172.929 57.5749C173.223 56.81 174.047 56.3349 174.866 56.2763Z" fill="#79AC53"/>
<path d="M186.277 78.6782C185.357 79.5975 183.811 79.6507 182.646 79.071C181.481 78.4914 180.653 77.3982 180.047 76.2488C178.96 74.184 178.392 71.0564 178.754 68.7576C178.85 68.1521 179.099 67.581 179.476 67.0981C179.854 66.6152 180.348 66.2364 180.913 65.9971C183.058 65.0944 186.228 64.8997 188.493 65.4612C189.755 65.7742 191.014 66.3197 191.854 67.3103C192.695 68.3009 193.013 69.8176 192.342 70.9312C191.46 72.3994 189.403 72.5413 188.269 73.9876C187.134 75.434 187.49 77.4685 186.277 78.6782Z" fill="#79AC53"/>
<path d="M186.987 63.349C186.984 63.3503 186.984 63.3561 186.983 63.3575C186.827 63.6352 186.586 63.8557 186.295 63.9864C186.005 64.1172 185.68 64.1514 185.368 64.084C185.32 64.075 185.275 64.0614 185.226 64.0476C184.747 63.9108 184.319 63.6323 183.928 63.3227C182.277 62.0114 181.164 60.1415 180.798 58.0656C180.683 57.3951 180.663 56.6575 181.039 56.0894C181.456 55.4639 182.291 55.2089 183.035 55.3225C183.778 55.4361 184.437 55.8666 184.995 56.3708C186.224 57.491 187.043 58.9906 187.32 60.6306C187.472 61.5493 187.437 62.5352 186.987 63.349Z" fill="#79AC53"/>
<path d="M91.8199 73.2921C92.3165 73.2318 92.8279 73.2151 93.3082 73.3469C93.3574 73.3596 93.4044 73.3745 93.45 73.3898C93.7511 73.4945 94.0105 73.6934 94.19 73.9573C94.3694 74.2212 94.4595 74.5361 94.447 74.8556C94.447 74.8556 94.4447 74.8613 94.444 74.8629C94.4029 75.7966 93.9154 76.6593 93.3064 77.3661C92.2123 78.6275 90.73 79.487 89.095 79.808C88.3565 79.9497 87.5696 79.9747 86.8743 79.6853C86.1791 79.396 85.6014 78.7434 85.572 77.9892C85.5453 77.3071 85.9507 76.6845 86.3975 76.1709C87.7959 74.5814 89.7243 73.5575 91.8199 73.2921Z" fill="#79AC53"/>
<path d="M79.3817 72.4903C79.5164 71.7657 80.0933 71.2074 80.6905 70.774C82.5497 69.4377 84.8342 68.8262 87.1147 69.0544C87.6529 69.1126 88.1956 69.2189 88.6752 69.4741C88.7238 69.5003 88.7687 69.5267 88.8136 69.5554C89.1075 69.7383 89.3348 70.0106 89.462 70.3322C89.5892 70.6538 89.6095 71.0077 89.5199 71.3415C89.5195 71.3442 89.5184 71.3468 89.5168 71.349C89.2504 72.324 88.5289 73.1153 87.7147 73.7138C86.2569 74.7783 84.4837 75.3246 82.6778 75.2656C81.8613 75.2376 81.0223 75.0707 80.3565 74.5977C79.6906 74.1247 79.2314 73.2962 79.3817 72.4903Z" fill="#79AC53"/>
<path d="M79.0487 63.3211C79.5887 62.703 80.3692 62.3457 81.1589 62.1265C82.9062 61.6467 84.7619 61.767 86.4302 62.4681C87.3632 62.8638 88.2497 63.4704 88.7352 64.3588C88.7377 64.3625 88.7379 64.3661 88.7401 64.3674C88.9042 64.6728 88.9661 65.0232 88.9168 65.367C88.8675 65.7109 88.7094 66.03 88.466 66.2776C88.4273 66.3166 88.388 66.3539 88.349 66.3892C87.9426 66.7513 87.4368 66.9838 86.9226 67.1638C84.7523 67.9196 82.3832 67.8545 80.2614 66.9809C79.5806 66.697 78.8883 66.2839 78.5878 65.6074C78.2578 64.8574 78.5087 63.9393 79.0487 63.3211Z" fill="#79AC53"/>
<path d="M102.926 71.1895C102.921 72.4897 101.86 73.6166 100.625 74.0252C99.3903 74.4339 98.0321 74.2414 96.7927 73.8518C94.5668 73.1516 91.9607 71.3313 90.5986 69.4445C90.2406 68.9467 90.015 68.3662 89.9431 67.7574C89.8711 67.1486 89.9552 66.5315 90.1874 65.9642C91.0747 63.8125 93.1885 61.4415 95.1917 60.2452C96.3083 59.5785 97.5858 59.0796 98.8804 59.1908C100.175 59.302 101.469 60.1549 101.777 61.4179C102.184 63.0816 100.824 64.6306 101.037 66.4564C101.25 68.2822 102.936 69.4763 102.926 71.1895Z" fill="#79AC53"/>
<path d="M92.6353 59.8059C92.6341 59.8089 92.6381 59.8132 92.6382 59.815C92.723 60.1221 92.7071 60.4484 92.5928 60.7459C92.4786 61.0434 92.272 61.2965 92.0035 61.4679C91.9627 61.4957 91.9211 61.5178 91.8768 61.5424C91.4407 61.7824 90.9407 61.886 90.4444 61.9421C88.3489 62.1739 86.2418 61.6302 84.5205 60.4136C83.9667 60.0186 83.4328 59.5092 83.2997 58.8411C83.1554 58.1031 83.5683 57.3343 84.1763 56.8913C84.7843 56.4483 85.5553 56.2897 86.306 56.2552C87.968 56.1844 89.6053 56.6726 90.9569 57.6419C91.7116 58.1872 92.3814 58.9114 92.6353 59.8059Z" fill="#79AC53"/>
<path d="M38.7724 147.546C39.182 147.258 39.6251 147.003 40.1108 146.892C40.1602 146.88 40.2087 146.871 40.256 146.863C40.5709 146.814 40.8935 146.867 41.1762 147.015C41.4589 147.163 41.6868 147.398 41.8264 147.686C41.8264 147.686 41.827 147.692 41.8272 147.694C42.2312 148.537 42.208 149.527 42.0042 150.438C41.6341 152.066 40.732 153.523 39.4415 154.577C38.857 155.05 38.1749 155.443 37.4253 155.516C36.6758 155.588 35.8587 155.285 35.4771 154.634C35.132 154.045 35.196 153.305 35.3478 152.641C35.8317 150.58 37.0496 148.768 38.7724 147.546Z" fill="#79AC53"/>
<path d="M27.4254 152.703C27.2026 152.001 27.4481 151.236 27.7705 150.572C28.7799 148.517 30.5063 146.901 32.6251 146.027C33.1271 145.825 33.6558 145.662 34.1991 145.661C34.2543 145.662 34.3064 145.664 34.3595 145.668C34.7049 145.691 35.0338 145.824 35.2976 146.047C35.5613 146.271 35.7461 146.573 35.8244 146.91C35.8253 146.913 35.8256 146.915 35.8253 146.918C36.05 147.904 35.7868 148.942 35.351 149.853C34.5672 151.479 33.2611 152.797 31.6406 153.596C30.9075 153.957 30.0889 154.205 29.2786 154.102C28.4684 153.999 27.6728 153.485 27.4254 152.703Z" fill="#79AC53"/>
<path d="M22.8087 144.774C22.9935 143.974 23.5133 143.291 24.1064 142.725C25.4211 141.479 27.1143 140.71 28.9161 140.542C29.9254 140.451 30.9932 140.568 31.8402 141.122C31.8442 141.124 31.8461 141.127 31.8486 141.127C32.1373 141.319 32.3572 141.599 32.4758 141.926C32.5944 142.252 32.6055 142.608 32.5075 142.941C32.4918 142.994 32.4747 143.045 32.457 143.095C32.2693 143.606 31.9329 144.049 31.5643 144.45C30.0066 146.14 27.8867 147.2 25.6036 147.43C24.8694 147.5 24.0641 147.462 23.4802 147.007C22.8355 146.502 22.6239 145.574 22.8087 144.774Z" fill="#79AC53"/>
<path d="M47.5756 140.455C48.1838 141.604 47.7799 143.098 46.8834 144.041C45.987 144.983 44.6985 145.454 43.4218 145.695C41.1286 146.127 37.9721 145.75 35.8814 144.729C35.331 144.458 34.8583 144.053 34.5078 143.55C34.1573 143.047 33.9406 142.463 33.8778 141.853C33.6459 139.537 34.3921 136.45 35.5947 134.45C36.265 133.336 37.1564 132.294 38.3505 131.781C39.5445 131.269 41.0876 131.411 41.9547 132.38C43.0985 133.655 42.6295 135.662 43.6782 137.172C44.727 138.681 46.7762 138.94 47.5756 140.455Z" fill="#79AC53"/>
<path d="M33.1331 135.268C33.1334 135.271 33.139 135.273 33.14 135.275C33.3595 135.506 33.4993 135.801 33.5388 136.117C33.5783 136.433 33.5155 136.754 33.3595 137.032C33.3366 137.075 33.3104 137.115 33.2829 137.157C33.0114 137.574 32.6194 137.902 32.2082 138.185C30.4694 139.377 28.3549 139.891 26.2634 139.63C25.5887 139.543 24.8777 139.345 24.4453 138.819C23.9701 138.236 23.9718 137.363 24.2991 136.686C24.6264 136.009 25.2316 135.505 25.8774 135.121C27.3097 134.275 28.9837 133.934 30.6326 134.151C31.5553 134.276 32.4875 134.599 33.1331 135.268Z" fill="#79AC53"/>
<path d="M37.6311 228.911C37.7775 228.433 37.9697 227.959 38.285 227.573C38.3166 227.533 38.3493 227.496 38.3817 227.461C38.5995 227.228 38.8866 227.072 39.2006 227.015C39.5146 226.958 39.839 227.003 40.1259 227.144C40.1259 227.144 40.1302 227.149 40.1314 227.15C40.9682 227.566 41.5589 228.362 41.9579 229.205C42.667 230.717 42.8512 232.421 42.4813 234.045C42.3112 234.778 42.0148 235.507 41.4683 236.025C40.9219 236.543 40.091 236.807 39.3897 236.527C38.7554 236.275 38.3508 235.652 38.0626 235.035C37.1771 233.112 37.0236 230.934 37.6311 228.911Z" fill="#79AC53"/>
<path d="M31.8523 239.955C31.2447 239.538 30.9684 238.784 30.8145 238.062C30.3473 235.821 30.7152 233.485 31.849 231.493C32.1205 231.024 32.4378 230.571 32.8656 230.237C32.9092 230.203 32.9517 230.173 32.9961 230.143C33.2824 229.949 33.6236 229.851 33.9692 229.866C34.3147 229.88 34.6464 230.005 34.9151 230.222C34.9174 230.224 34.9193 230.226 34.9208 230.228C35.7038 230.867 36.1344 231.848 36.3511 232.834C36.7327 234.599 36.5127 236.441 35.7261 238.068C35.3693 238.803 34.8764 239.502 34.1739 239.919C33.4714 240.335 32.5279 240.419 31.8523 239.955Z" fill="#79AC53"/>
<path d="M23.3365 236.539C22.9906 235.795 22.9806 234.937 23.1006 234.126C23.3709 232.334 24.2337 230.687 25.5513 229.446C26.2915 228.754 27.2056 228.19 28.2145 228.107C28.2189 228.106 28.2224 228.107 28.2244 228.106C28.5701 228.08 28.9155 228.165 29.2097 228.35C29.504 228.534 29.7316 228.808 29.8591 229.131C29.8791 229.182 29.8973 229.233 29.9137 229.283C30.0798 229.802 30.0871 230.358 30.043 230.901C29.8533 233.192 28.8328 235.331 27.1735 236.916C26.6379 237.423 25.9794 237.888 25.2392 237.888C24.4198 237.885 23.6824 237.284 23.3365 236.539Z" fill="#79AC53"/>
<path d="M40.2149 217.907C41.4011 218.439 42.0009 219.866 41.8734 221.16C41.7459 222.455 41.0189 223.618 40.1601 224.593C38.6171 226.344 35.896 227.987 33.6189 228.467C33.0187 228.592 32.3965 228.563 31.8109 228.381C31.2252 228.2 30.6953 227.873 30.271 227.431C28.6643 225.747 27.3546 222.853 27.0739 220.537C26.9175 219.245 26.9798 217.875 27.6066 216.737C28.2333 215.599 29.5378 214.763 30.8172 214.993C32.5031 215.296 33.3672 217.167 35.1225 217.713C36.8778 218.259 38.6528 217.203 40.2149 217.907Z" fill="#79AC53"/>
<path d="M25.6353 222.695C25.6376 222.697 25.6431 222.695 25.6448 222.696C25.9599 222.743 26.2517 222.89 26.4772 223.115C26.7028 223.34 26.8503 223.632 26.8981 223.947C26.9069 223.995 26.9103 224.042 26.9148 224.093C26.9572 224.589 26.8491 225.088 26.699 225.564C26.0608 227.573 24.709 229.279 22.8988 230.358C22.313 230.704 21.6308 230.986 20.9662 230.836C20.2331 230.669 19.698 229.98 19.5397 229.244C19.3814 228.509 19.5493 227.74 19.8223 227.039C20.4318 225.492 21.5422 224.193 22.9765 223.351C23.7811 222.882 24.7148 222.564 25.6353 222.695Z" fill="#79AC53"/>
<path d="M22.721 318.752C22.8674 318.274 23.0596 317.799 23.3749 317.414C23.4065 317.374 23.4392 317.337 23.4716 317.302C23.6895 317.069 23.9765 316.913 24.2905 316.856C24.6045 316.799 24.9289 316.844 25.2159 316.985C25.2159 316.985 25.2202 316.99 25.2213 316.991C26.0581 317.407 26.6489 318.203 27.0479 319.046C27.7569 320.558 27.9411 322.261 27.5713 323.886C27.4012 324.618 27.1048 325.348 26.5583 325.866C26.0118 326.384 25.181 326.647 24.4796 326.368C23.8453 326.116 23.4408 325.493 23.1526 324.876C22.267 322.953 22.1136 320.775 22.721 318.752Z" fill="#79AC53"/>
<path d="M16.9422 329.795C16.3346 329.378 16.0583 328.625 15.9044 327.903C15.4372 325.662 15.8051 323.325 16.9389 321.334C17.2104 320.865 17.5277 320.412 17.9556 320.077C17.9992 320.044 18.0416 320.013 18.086 319.984C18.3724 319.789 18.7135 319.692 19.0591 319.706C19.4047 319.721 19.7363 319.846 20.005 320.063C20.0073 320.064 20.0093 320.066 20.0107 320.069C20.7937 320.708 21.2243 321.688 21.441 322.675C21.8226 324.44 21.6026 326.282 20.816 327.909C20.4593 328.644 19.9663 329.343 19.2638 329.759C18.5614 330.176 17.6178 330.26 16.9422 329.795Z" fill="#79AC53"/>
<path d="M8.42643 326.38C8.08052 325.636 8.07053 324.777 8.19052 323.967C8.46085 322.175 9.32363 320.528 10.6412 319.287C11.3814 318.595 12.2955 318.031 13.3045 317.947C13.3088 317.947 13.3123 317.948 13.3143 317.946C13.6601 317.92 14.0054 318.006 14.2997 318.19C14.5939 318.375 14.8216 318.649 14.9491 318.972C14.969 319.023 14.9872 319.074 15.0036 319.124C15.1697 319.642 15.1771 320.199 15.1329 320.742C14.9433 323.032 13.9227 325.171 12.2635 326.756C11.7278 327.263 11.0693 327.729 10.3291 327.729C9.50971 327.726 8.77234 327.124 8.42643 326.38Z" fill="#79AC53"/>
<path d="M25.3048 307.748C26.4911 308.28 27.0908 309.707 26.9633 311.001C26.8358 312.296 26.1089 313.459 25.25 314.434C23.707 316.184 20.986 317.828 18.7088 318.307C18.1086 318.433 17.4864 318.403 16.9008 318.222C16.3152 318.041 15.7853 317.714 15.3609 317.271C13.7542 315.587 12.4446 312.694 12.1639 310.377C12.0074 309.086 12.0697 307.716 12.6965 306.578C13.3233 305.44 14.6278 304.603 15.9071 304.834C17.5931 305.137 18.4571 307.008 20.2124 307.554C21.9677 308.1 23.7428 307.044 25.3048 307.748Z" fill="#79AC53"/>
<path d="M10.7252 312.536C10.7275 312.538 10.7331 312.536 10.7348 312.537C11.0498 312.584 11.3416 312.731 11.5672 312.956C11.7928 313.181 11.9403 313.472 11.988 313.787C11.9969 313.836 12.0002 313.883 12.0047 313.933C12.0471 314.429 11.939 314.928 11.789 315.405C11.1507 317.414 9.79897 319.12 7.98873 320.199C7.40297 320.545 6.72077 320.827 6.05611 320.677C5.32304 320.51 4.7879 319.82 4.6296 319.085C4.47129 318.35 4.63921 317.58 4.91219 316.88C5.52174 315.332 6.63215 314.034 8.06641 313.192C8.87101 312.723 9.8047 312.405 10.7252 312.536Z" fill="#79AC53"/>
</svg>
