<svg width="29" height="33" viewBox="0 0 29 33" fill="none" xmlns="http://www.w3.org/2000/svg">
<path d="M23.69 28.1419C23.69 29.0438 23.7169 29.7702 23.69 30.4917C23.6291 31.9543 22.6833 32.9707 21.2525 32.9781C15.1098 33.0073 8.96786 33.0073 2.82678 32.9781C1.31791 32.9781 0.420883 31.8787 0.418446 30.2211C0.408695 24.3222 0.408695 18.4232 0.418446 12.5243C0.418446 10.9082 0.418446 9.29205 0.418446 7.67593C0.435509 5.79168 1.36422 4.88248 3.27041 4.86298C3.87493 4.86298 4.48918 4.86298 5.26677 4.86298C5.26677 4.11221 5.25459 3.40043 5.26677 2.69597C5.30334 1.01891 6.24181 0.0146255 7.88718 0.0146255C13.8999 -0.00487517 19.9199 -0.00487517 25.9473 0.0146255C27.539 0.0146255 28.536 1.00427 28.5384 2.59358C28.5579 10.2313 28.5579 17.8691 28.5384 25.5069C28.5384 27.1547 27.5365 28.1029 25.8741 28.1419C25.1916 28.1565 24.5115 28.1419 23.69 28.1419ZM21.74 18.9571C21.74 15.2788 21.7229 11.6004 21.7546 7.92213C21.7546 7.09579 21.5109 6.78136 20.6455 6.7838C14.9074 6.81305 9.16937 6.81305 3.4313 6.7838C2.56839 6.7838 2.32219 7.09579 2.32462 7.92213C2.34575 15.2349 2.34575 22.5476 2.32462 29.8604C2.32462 30.7379 2.56839 31.0792 3.49223 31.0621C9.1913 31.0296 14.8896 31.0296 20.587 31.0621C21.5035 31.0621 21.7668 30.7428 21.7595 29.8604C21.7302 26.2308 21.7522 22.594 21.7522 18.9571H21.74ZM23.69 26.2016H24.7504C26.6005 26.2162 26.6005 26.2162 26.6005 24.3783C26.6005 17.3483 26.581 10.3158 26.6249 3.28828C26.6249 2.206 26.2934 1.91349 25.2403 1.92324C20.0678 1.97199 14.8977 1.92324 9.72512 1.95493C6.95847 1.97443 7.17053 1.36503 7.22416 4.5412C7.22416 4.60946 7.28512 4.67772 7.368 4.85566H8.50145C12.543 4.85566 16.5837 4.85566 20.6235 4.85566C22.832 4.85566 23.6876 5.71855 23.69 7.94406C23.69 13.5603 23.69 19.1757 23.69 24.7902V26.2016Z" fill="white"/>
</svg>
