<svg width="8" height="32" viewBox="0 0 8 32" fill="none" xmlns="http://www.w3.org/2000/svg">
<path d="M4.5 1C4.5 0.723858 4.27614 0.5 4 0.5C3.72386 0.5 3.5 0.723858 3.5 1H4.5ZM3.64645 31.3536C3.84171 31.5488 4.15829 31.5488 4.35355 31.3536L7.53553 28.1716C7.7308 27.9763 7.7308 27.6597 7.53553 27.4645C7.34027 27.2692 7.02369 27.2692 6.82843 27.4645L4 30.2929L1.17157 27.4645C0.976311 27.2692 0.659728 27.2692 0.464466 27.4645C0.269204 27.6597 0.269204 27.9763 0.464466 28.1716L3.64645 31.3536ZM3.5 1V31H4.5V1H3.5Z" fill="white"/>
</svg>
