<svg width="120" height="359" viewBox="0 0 120 359" fill="none" xmlns="http://www.w3.org/2000/svg">
<path d="M101.048 12.3471C101.49 12.1125 101.919 11.8336 102.237 11.4507C102.271 11.4121 102.301 11.373 102.329 11.3344C102.516 11.0763 102.615 10.7647 102.611 10.4456C102.608 10.1265 102.501 9.81668 102.308 9.56179C102.308 9.56179 102.303 9.55842 102.302 9.55752C101.734 8.81515 100.84 8.38649 99.9366 8.15516C98.3176 7.74653 96.6101 7.88962 95.0854 8.5617C94.3987 8.86799 93.739 9.29768 93.3343 9.93271C92.9295 10.5678 92.8291 11.4335 93.2364 12.0689C93.6048 12.6437 94.2934 12.9224 94.9537 13.088C97.0101 13.5917 99.1775 13.3282 101.048 12.3471Z" fill="#79AC53"/>
<path d="M91.3051 20.1205C91.8301 20.6377 92.6227 20.7656 93.3605 20.7794C95.6498 20.8118 97.8734 20.0064 99.6132 18.5145C100.021 18.1589 100.406 17.7613 100.653 17.2776C100.678 17.2283 100.7 17.1809 100.72 17.1317C100.857 16.8136 100.887 16.4602 100.807 16.1236C100.728 15.7871 100.542 15.4853 100.278 15.2628C100.276 15.2608 100.273 15.2592 100.271 15.2583C99.4944 14.6111 98.45 14.3748 97.4398 14.3497C95.6351 14.3106 93.8683 14.877 92.4208 15.9586C91.7671 16.4485 91.1745 17.0655 90.899 17.8344C90.6234 18.6033 90.7208 19.5455 91.3051 20.1205Z" fill="#79AC53"/>
<path d="M96.2776 27.8314C97.0741 28.0294 97.9187 27.876 98.6918 27.604C100.399 26.9979 101.853 25.8376 102.82 24.3082C103.359 23.4498 103.739 22.4451 103.629 21.4388C103.629 21.4343 103.627 21.4312 103.628 21.4289C103.588 21.0845 103.438 20.7617 103.201 20.5079C102.964 20.2541 102.651 20.0828 102.31 20.019C102.256 20.0091 102.203 20.001 102.15 19.9943C101.61 19.9299 101.062 20.0285 100.537 20.1751C98.3249 20.7968 96.419 22.2055 95.1785 24.1359C94.7825 24.7582 94.4511 25.4931 94.5916 26.2199C94.75 27.0239 95.481 27.6333 96.2776 27.8314Z" fill="#79AC53"/>
<path d="M111.36 7.71773C110.612 6.65437 109.098 6.3368 107.851 6.70819C106.604 7.07957 105.6 8.01446 104.807 9.04304C103.381 10.8908 102.285 13.8747 102.248 16.2014C102.239 16.8145 102.386 17.4198 102.675 17.9603C102.964 18.5008 103.386 18.9588 103.901 19.2912C105.86 20.5484 108.95 21.2838 111.278 21.119C112.575 21.027 113.908 20.7053 114.906 19.8736C115.904 19.0418 116.478 17.602 116.008 16.3899C115.39 14.7922 113.389 14.2998 112.519 12.6804C111.649 11.0609 112.348 9.11747 111.36 7.71773Z" fill="#79AC53"/>
<path d="M109.432 22.9418C109.429 22.94 109.43 22.9342 109.429 22.9326C109.323 22.6323 109.124 22.3738 108.86 22.1951C108.596 22.0165 108.281 21.9271 107.963 21.9401C107.914 21.9406 107.867 21.9463 107.817 21.9515C107.322 22.0042 106.852 22.2052 106.413 22.4431C104.562 23.4518 103.145 25.1032 102.429 27.0857C102.201 27.7266 102.054 28.4498 102.327 29.074C102.631 29.7618 103.41 30.1561 104.162 30.1717C104.914 30.1872 105.637 29.8761 106.272 29.475C107.676 28.5822 108.74 27.2451 109.294 25.6769C109.601 24.7979 109.736 23.8207 109.432 22.9418Z" fill="#79AC53"/>
<path d="M46.2329 83.5047C46.5091 83.0875 46.7528 82.6377 46.8499 82.1492C46.8606 82.0995 46.8683 82.0508 46.875 82.0032C46.9161 81.6871 46.8543 81.3661 46.6987 81.0875C46.543 80.8089 46.3017 80.5874 46.0103 80.4556C46.0103 80.4556 46.0042 80.4551 46.0026 80.455C45.1491 80.0739 44.1595 80.1238 43.2548 80.3521C41.6372 80.766 40.2052 81.707 39.1864 83.0254C38.7292 83.6224 38.3547 84.315 38.3023 85.0662C38.2499 85.8174 38.5749 86.6261 39.2362 86.9899C39.8343 87.319 40.5725 87.2351 41.2318 87.0654C43.2791 86.5262 45.0577 85.2599 46.2329 83.5047Z" fill="#79AC53"/>
<path d="M41.3835 94.9866C42.0917 95.1904 42.8492 94.9243 43.5041 94.5842C45.5311 93.5197 47.1003 91.7504 47.9168 89.6088C48.1056 89.1015 48.2535 88.5686 48.2399 88.0255C48.2382 87.9704 48.2346 87.9183 48.2291 87.8653C48.1971 87.5207 48.0553 87.1955 47.8246 86.9378C47.5939 86.6802 47.2865 86.5037 46.948 86.4344C46.9453 86.4336 46.9425 86.4334 46.9398 86.4338C45.9487 86.2357 44.9182 86.5268 44.0186 86.9871C42.4142 87.8144 41.1321 89.1556 40.3767 90.797C40.0363 91.5396 39.8102 92.3646 39.9352 93.1718C40.0601 93.9789 40.5955 94.7603 41.3835 94.9866Z" fill="#79AC53"/>
<path d="M49.4342 99.3878C50.2286 99.1815 50.8974 98.6435 51.4469 98.0353C52.6579 96.6875 53.3808 94.9741 53.5004 93.1685C53.5641 92.1571 53.4183 91.0928 52.8411 90.2611C52.839 90.2572 52.8358 90.2553 52.8356 90.2528C52.636 89.9694 52.3504 89.7572 52.0208 89.6475C51.6912 89.5377 51.3351 89.5362 51.0047 89.6431C50.9526 89.6602 50.9016 89.6787 50.8526 89.6977C50.3469 89.8992 49.9126 90.2474 49.5216 90.6267C47.8744 92.2293 46.8723 94.377 46.704 96.6655C46.6533 97.4013 46.7129 98.2053 47.1834 98.7768C47.7064 99.4076 48.6397 99.5941 49.4342 99.3878Z" fill="#79AC53"/>
<path d="M53.0836 74.5135C51.9184 73.9365 50.4361 74.3805 49.5179 75.3021C48.5998 76.2236 48.1641 77.5244 47.9578 78.8071C47.5878 81.111 48.0494 84.2562 49.1271 86.3186C49.412 86.8616 49.8303 87.3232 50.3425 87.6599C50.8548 87.9967 51.4442 88.1977 52.0554 88.2439C54.3767 88.4134 57.443 87.5842 59.4093 86.3281C60.5052 85.628 61.5231 84.7088 62.003 83.5014C62.4829 82.294 62.2991 80.7552 61.3075 79.9146C60.0021 78.8056 58.0083 79.3286 56.4709 78.3209C54.9335 77.3132 54.6199 75.2717 53.0836 74.5135Z" fill="#79AC53"/>
<path d="M58.6581 88.8109C58.6548 88.8107 58.6528 88.8052 58.6512 88.8042C58.4146 88.591 58.1157 88.4592 57.7985 88.4282C57.4813 88.3973 57.1625 88.4687 56.8891 88.6322C56.846 88.6562 56.8076 88.6835 56.7657 88.7121C56.356 88.9947 56.0395 89.3955 55.7672 89.8142C54.6222 91.5844 54.1654 93.712 54.483 95.7958C54.5884 96.4679 54.8051 97.1733 55.343 97.5913C55.9384 98.0506 56.8106 98.0254 57.4789 97.6799C58.1472 97.3345 58.634 96.7159 59.0009 96.06C59.8079 94.6055 60.1041 92.9228 59.8422 91.2803C59.6922 90.3614 59.3444 89.4383 58.6581 88.8109Z" fill="#79AC53"/>
<path d="M13.5877 173.261C13.6052 172.761 13.578 172.25 13.4055 171.783C13.3886 171.735 13.3697 171.689 13.3506 171.645C13.2205 171.354 13.0001 171.113 12.7218 170.957C12.4435 170.8 12.122 170.738 11.8047 170.778C11.8047 170.778 11.7992 170.78 11.7978 170.781C10.8709 170.902 10.0532 171.462 9.4012 172.129C8.23828 173.327 7.509 174.878 7.32931 176.534C7.25149 177.282 7.29404 178.068 7.64188 178.736C7.98972 179.404 8.68944 179.924 9.4434 179.889C10.1253 179.857 10.7108 179.399 11.1843 178.91C12.6481 177.381 13.5028 175.372 13.5877 173.261Z" fill="#79AC53"/>
<path d="M15.4528 185.585C16.1631 185.388 16.6699 184.766 17.0505 184.134C18.2226 182.167 18.636 179.838 18.2131 177.586C18.109 177.054 17.9566 176.523 17.6612 176.067C17.631 176.021 17.6007 175.978 17.5683 175.936C17.361 175.659 17.0701 175.456 16.7388 175.356C16.4075 175.257 16.0532 175.267 15.7283 175.385C15.7256 175.386 15.7231 175.387 15.721 175.389C14.7725 175.738 14.046 176.525 13.5195 177.387C12.5838 178.931 12.1915 180.744 12.4051 182.539C12.503 183.35 12.7412 184.171 13.2696 184.794C13.7979 185.417 14.6627 185.804 15.4528 185.585Z" fill="#79AC53"/>
<path d="M24.6166 185.131C25.1862 184.54 25.4753 183.731 25.6261 182.926C25.9543 181.144 25.6754 179.305 24.8338 177.703C24.3596 176.807 23.6792 175.976 22.7525 175.569C22.7486 175.567 22.745 175.567 22.7435 175.565C22.4252 175.427 22.0708 175.396 21.7324 175.474C21.3941 175.553 21.0896 175.738 20.8638 176.001C20.8283 176.043 20.7945 176.086 20.7627 176.127C20.4368 176.563 20.2484 177.087 20.1132 177.615C19.5463 179.842 19.8141 182.197 20.8664 184.236C21.2076 184.89 21.6786 185.544 22.3783 185.786C23.1539 186.05 24.0471 185.722 24.6166 185.131Z" fill="#79AC53"/>
<path d="M14.7306 162.015C13.4356 162.132 12.4037 163.285 12.1025 164.551C11.8012 165.816 12.1094 167.153 12.6038 168.354C13.4922 170.512 15.5292 172.953 17.5258 174.148C18.0524 174.462 18.6502 174.637 19.2629 174.656C19.8757 174.676 20.4833 174.539 21.0286 174.259C23.0963 173.191 25.2774 170.882 26.2975 168.783C26.8661 167.614 27.2537 166.298 27.0319 165.018C26.8102 163.738 25.8494 162.522 24.5647 162.323C22.8722 162.06 21.4455 163.547 19.6081 163.492C17.7708 163.436 16.4367 161.859 14.7306 162.015Z" fill="#79AC53"/>
<path d="M26.9544 171.293C26.9514 171.294 26.9468 171.29 26.945 171.29C26.6318 171.232 26.3081 171.276 26.0215 171.415C25.7348 171.555 25.5004 171.782 25.3526 172.065C25.3284 172.108 25.3099 172.151 25.2892 172.197C25.0876 172.652 25.0271 173.159 25.0138 173.659C24.9625 175.766 25.6848 177.819 27.0444 179.43C27.4855 179.948 28.0388 180.436 28.7159 180.511C29.4635 180.592 30.194 180.114 30.5833 179.471C30.9726 178.827 31.0645 178.045 31.0345 177.294C30.9626 175.632 30.3358 174.043 29.2543 172.779C28.6463 172.074 27.8673 171.469 26.9544 171.293Z" fill="#79AC53"/>
<path d="M12.4672 265.521C12.3156 265.045 12.1183 264.573 11.7988 264.191C11.7668 264.151 11.7336 264.114 11.7008 264.079C11.4805 263.849 11.1918 263.696 10.8771 263.642C10.5625 263.589 10.2387 263.637 9.95327 263.782C9.95327 263.782 9.94902 263.786 9.94789 263.787C9.11564 264.213 8.5336 265.015 8.14377 265.862C7.45118 267.382 7.28546 269.087 7.67295 270.708C7.85101 271.438 8.1553 272.164 8.70738 272.677C9.25945 273.189 10.0931 273.443 10.7913 273.156C11.4229 272.897 11.8206 272.27 12.1021 271.65C12.9667 269.717 13.0966 267.538 12.4672 265.521Z" fill="#79AC53"/>
<path d="M18.3656 276.502C18.9686 276.078 19.2366 275.321 19.3827 274.598C19.8255 272.351 19.4323 270.019 18.2769 268.04C18.0004 267.575 17.6782 267.125 17.2467 266.795C17.2027 266.762 17.16 266.732 17.1152 266.703C16.8268 266.512 16.4846 266.418 16.1392 266.436C15.7938 266.454 15.4636 266.583 15.1972 266.803C15.1949 266.804 15.193 266.806 15.1916 266.809C14.4155 267.456 13.9957 268.441 13.7897 269.431C13.4272 271.199 13.6672 273.039 14.4715 274.657C14.8362 275.388 15.3367 276.082 16.0436 276.491C16.7506 276.9 17.695 276.973 18.3656 276.502Z" fill="#79AC53"/>
<path d="M26.8437 272.994C27.1815 272.246 27.1822 271.387 27.0534 270.578C26.7636 268.789 25.883 267.151 24.552 265.926C23.8044 265.241 22.8842 264.687 21.8744 264.615C21.87 264.614 21.8666 264.615 21.8645 264.614C21.5186 264.591 21.1741 264.681 20.8819 264.869C20.5897 265.056 20.365 265.333 20.241 265.657C20.2217 265.708 20.204 265.76 20.1881 265.81C20.0277 266.33 20.0264 266.887 20.0764 267.429C20.2909 269.717 21.3346 271.845 23.011 273.412C23.5521 273.913 24.2156 274.371 24.9558 274.363C25.7751 274.352 26.5059 273.742 26.8437 272.994Z" fill="#79AC53"/>
<path d="M9.76403 254.546C8.58363 255.091 7.99938 256.524 8.14095 257.817C8.28252 259.11 9.02204 260.266 9.89145 261.231C11.4534 262.965 14.1921 264.578 16.4743 265.033C17.0758 265.152 17.6976 265.116 18.2813 264.928C18.8649 264.741 19.3912 264.408 19.8107 263.961C21.399 262.26 22.6772 259.352 22.9328 257.033C23.0752 255.74 22.998 254.371 22.3589 253.239C21.7198 252.108 20.4063 251.286 19.1295 251.53C17.447 251.851 16.6033 253.732 14.854 254.297C13.1047 254.862 11.3184 253.825 9.76403 254.546Z" fill="#79AC53"/>
<path d="M24.3948 259.175C24.3925 259.178 24.3869 259.176 24.3852 259.176C24.0707 259.227 23.7805 259.377 23.5574 259.604C23.3343 259.832 23.1899 260.125 23.1456 260.441C23.1373 260.489 23.1344 260.536 23.1305 260.587C23.0935 261.083 23.207 261.581 23.3622 262.056C24.0223 264.058 25.3924 265.749 27.2143 266.809C27.8038 267.148 28.489 267.422 29.152 267.265C29.8832 267.09 30.4108 266.395 30.5611 265.658C30.7114 264.921 30.5352 264.154 30.2546 263.456C29.6283 261.915 28.5039 260.629 27.0605 259.802C26.2509 259.343 25.3138 259.034 24.3948 259.175Z" fill="#79AC53"/>
<path d="M41.9726 345.743C41.5999 345.409 41.1902 345.103 40.7209 344.936C40.6733 344.918 40.6262 344.903 40.5801 344.89C40.2733 344.803 39.9467 344.818 39.6485 344.932C39.3503 345.045 39.0961 345.252 38.9235 345.521C38.9235 345.521 38.9221 345.527 38.9218 345.529C38.4209 346.318 38.3268 347.304 38.4215 348.232C38.5966 349.893 39.32 351.446 40.4768 352.645C41.0012 353.184 41.6321 353.655 42.3678 353.816C43.1035 353.977 43.9508 353.772 44.4067 353.171C44.819 352.627 44.843 351.884 44.7707 351.207C44.534 349.104 43.5389 347.16 41.9726 345.743Z" fill="#79AC53"/>
<path d="M52.6302 352.206C52.9345 351.534 52.7811 350.746 52.5395 350.049C51.7801 347.889 50.257 346.08 48.2564 344.962C47.7818 344.701 47.276 344.478 46.7367 344.412C46.6819 344.406 46.6299 344.402 46.5766 344.4C46.231 344.382 45.8887 344.475 45.6003 344.666C45.3119 344.857 45.0927 345.135 44.9751 345.46C44.9739 345.463 44.9733 345.465 44.9733 345.468C44.6337 346.42 44.7723 347.482 45.0972 348.439C45.6832 350.146 46.8243 351.609 48.3389 352.594C49.0243 353.039 49.8078 353.382 50.6246 353.376C51.4413 353.369 52.2921 352.952 52.6302 352.206Z" fill="#79AC53"/>
<path d="M58.1521 344.878C58.0631 344.062 57.6278 343.322 57.1057 342.691C55.9477 341.297 54.3572 340.333 52.588 339.953C51.5965 339.744 50.5224 339.733 49.6158 340.184C49.6116 340.186 49.6093 340.188 49.6068 340.188C49.2974 340.345 49.046 340.597 48.8897 340.907C48.7333 341.217 48.6802 341.569 48.7381 341.911C48.7475 341.965 48.7583 342.019 48.7701 342.07C48.896 342.599 49.1776 343.08 49.4962 343.521C50.8431 345.384 52.8229 346.686 55.0627 347.185C55.7834 347.342 56.5876 347.399 57.2212 347.017C57.9212 346.591 58.241 345.694 58.1521 344.878Z" fill="#79AC53"/>
<path d="M34.0697 337.661C33.3298 338.73 33.5543 340.261 34.333 341.303C35.1117 342.345 36.3355 342.965 37.5748 343.355C39.8007 344.055 42.9796 344.054 45.1765 343.287C45.755 343.084 46.2724 342.737 46.6799 342.279C47.0873 341.821 47.3716 341.267 47.506 340.669C48.0102 338.397 47.6343 335.243 46.6766 333.115C46.1428 331.929 45.3808 330.789 44.2558 330.139C43.1307 329.489 41.5816 329.448 40.606 330.307C39.3195 331.438 39.5479 333.486 38.3279 334.861C37.108 336.237 35.0427 336.251 34.0697 337.661Z" fill="#79AC53"/>
<path d="M49.0242 334.218C49.0235 334.221 49.0177 334.223 49.0166 334.224C48.7713 334.427 48.5975 334.704 48.5209 335.013C48.4443 335.323 48.4688 335.648 48.5908 335.943C48.6084 335.989 48.6298 336.031 48.652 336.076C48.8723 336.523 49.2229 336.894 49.5977 337.224C51.1833 338.614 53.2221 339.374 55.3299 339.362C56.0102 339.355 56.7395 339.243 57.2311 338.771C57.7719 338.249 57.8734 337.382 57.6285 336.671C57.3837 335.959 56.8422 335.388 56.2464 334.93C54.9242 333.921 53.3023 333.384 51.6392 333.405C50.7082 333.42 49.7444 333.63 49.0242 334.218Z" fill="#79AC53"/>
<path d="M87.0481 45.3471C87.4899 45.1125 87.9189 44.8336 88.2374 44.4507C88.2705 44.4121 88.3005 44.373 88.3292 44.3344C88.5162 44.0763 88.6152 43.7647 88.6114 43.4456C88.6077 43.1265 88.5014 42.8167 88.3083 42.5618C88.3083 42.5618 88.3031 42.5584 88.3018 42.5575C87.7338 41.8151 86.8405 41.3865 85.9366 41.1552C84.3176 40.7465 82.6101 40.8896 81.0854 41.5617C80.3987 41.868 79.739 42.2977 79.3343 42.9327C78.9295 43.5678 78.8291 44.4335 79.2364 45.0689C79.6048 45.6437 80.2934 45.9224 80.9537 46.088C83.0101 46.5917 85.1775 46.3282 87.0481 45.3471Z" fill="#79AC53"/>
<path d="M77.3051 53.1205C77.8301 53.6377 78.6227 53.7656 79.3605 53.7794C81.6498 53.8118 83.8734 53.0064 85.6133 51.5145C86.0214 51.1589 86.4058 50.7613 86.6531 50.2776C86.678 50.2283 86.6997 50.1809 86.7201 50.1317C86.8566 49.8136 86.8872 49.4602 86.8075 49.1236C86.7278 48.7871 86.542 48.4853 86.2776 48.2628C86.2757 48.2608 86.2733 48.2592 86.2707 48.2583C85.4944 47.6111 84.45 47.3748 83.4398 47.3497C81.6351 47.3106 79.8683 47.877 78.4208 48.9586C77.7672 49.4485 77.1745 50.0655 76.899 50.8344C76.6234 51.6033 76.7208 52.5455 77.3051 53.1205Z" fill="#79AC53"/>
<path d="M82.2776 60.8314C83.0741 61.0294 83.9187 60.876 84.6918 60.604C86.3994 59.9979 87.8526 58.8376 88.8198 57.3082C89.3587 56.4498 89.7387 55.4451 89.6287 54.4388C89.6286 54.4343 89.6268 54.4312 89.6278 54.4289C89.5877 54.0845 89.438 53.7617 89.2009 53.5079C88.9637 53.2541 88.6515 53.0828 88.3101 53.019C88.2561 53.0091 88.2025 53.001 88.1504 52.9943C87.6099 52.9299 87.062 53.0285 86.5374 53.1751C84.3249 53.7968 82.419 55.2055 81.1785 57.1359C80.7825 57.7582 80.4511 58.4931 80.5916 59.2199C80.75 60.0239 81.481 60.6333 82.2776 60.8314Z" fill="#79AC53"/>
<path d="M97.3603 40.7177C96.612 39.6544 95.0975 39.3368 93.8508 39.7082C92.6041 40.0796 91.6002 41.0145 90.8065 42.043C89.3814 43.8908 88.2853 46.8747 88.2476 49.2014C88.2387 49.8145 88.3858 50.4198 88.6751 50.9603C88.9644 51.5008 89.3864 51.9588 89.9014 52.2912C91.8601 53.5484 94.9502 54.2838 97.2776 54.119C98.5748 54.027 99.9081 53.7053 100.906 52.8736C101.904 52.0418 102.478 50.602 102.008 49.3899C101.39 47.7922 99.3885 47.2998 98.5188 45.6804C97.6491 44.0609 98.3482 42.1175 97.3603 40.7177Z" fill="#79AC53"/>
<path d="M95.4322 55.9418C95.4295 55.94 95.4303 55.9342 95.4294 55.9326C95.3232 55.6323 95.1235 55.3738 94.8596 55.1951C94.5957 55.0165 94.2815 54.9271 93.9632 54.9401C93.9138 54.9406 93.8671 54.9463 93.8166 54.9515C93.3217 55.0042 92.8523 55.2052 92.4131 55.4431C90.5618 56.4518 89.1447 58.1032 88.4289 60.0857C88.2006 60.7266 88.0541 61.4498 88.3272 62.074C88.6311 62.7618 89.4095 63.1561 90.1616 63.1717C90.9137 63.1872 91.6368 62.8761 92.2723 62.475C93.676 61.5822 94.7396 60.2451 95.2936 58.6769C95.6006 57.7979 95.7357 56.8207 95.4322 55.9418Z" fill="#79AC53"/>
<path d="M49.6873 119.185C49.9635 118.767 50.2073 118.318 50.3044 117.829C50.315 117.779 50.3227 117.731 50.3295 117.683C50.3706 117.367 50.3088 117.046 50.1531 116.767C49.9975 116.489 49.7562 116.267 49.4648 116.136C49.4648 116.136 49.4587 116.135 49.457 116.135C48.6036 115.754 47.614 115.804 46.7093 116.032C45.0917 116.446 43.6596 117.387 42.6408 118.705C42.1837 119.302 41.8092 119.995 41.7568 120.746C41.7043 121.497 42.0294 122.306 42.6907 122.67C43.2888 122.999 44.0269 122.915 44.6862 122.745C46.7336 122.206 48.5121 120.94 49.6873 119.185Z" fill="#79AC53"/>
<path d="M44.838 130.667C45.5462 130.87 46.3037 130.604 46.9586 130.264C48.9856 129.2 50.5548 127.43 51.3713 125.289C51.5601 124.781 51.708 124.249 51.6943 123.705C51.6927 123.65 51.6891 123.598 51.6836 123.545C51.6516 123.201 51.5098 122.875 51.2791 122.618C51.0484 122.36 50.741 122.184 50.4024 122.114C50.3998 122.114 50.397 122.113 50.3943 122.114C49.4031 121.916 48.3726 122.207 47.4731 122.667C45.8686 123.494 44.5866 124.835 43.8312 126.477C43.4908 127.22 43.2646 128.045 43.3896 128.852C43.5146 129.659 44.05 130.44 44.838 130.667Z" fill="#79AC53"/>
<path d="M52.8886 135.068C53.6831 134.861 54.3519 134.323 54.9014 133.715C56.1124 132.367 56.8353 130.654 56.9549 128.848C57.0185 127.837 56.8728 126.773 56.2956 125.941C56.2934 125.937 56.2903 125.935 56.2901 125.933C56.0904 125.649 55.8048 125.437 55.4753 125.327C55.1457 125.218 54.7896 125.216 54.4592 125.323C54.4071 125.34 54.356 125.359 54.3071 125.378C53.8014 125.579 53.3671 125.927 52.9761 126.307C51.3289 127.909 50.3268 130.057 50.1585 132.345C50.1077 133.081 50.1674 133.885 50.6378 134.457C51.1608 135.088 52.0942 135.274 52.8886 135.068Z" fill="#79AC53"/>
<path d="M56.5381 110.193C55.3728 109.616 53.8905 110.06 52.9724 110.982C52.0542 111.904 51.6186 113.204 51.4123 114.487C51.0423 116.791 51.5038 119.936 52.5816 121.999C52.8665 122.542 53.2847 123.003 53.797 123.34C54.3092 123.677 54.8987 123.878 55.5099 123.924C57.8312 124.093 60.8975 123.264 62.8638 122.008C63.9597 121.308 64.9776 120.389 65.4575 119.181C65.9374 117.974 65.7536 116.435 64.762 115.594C63.4566 114.485 61.4628 115.008 59.9254 114.001C58.388 112.993 58.0744 110.952 56.5381 110.193Z" fill="#79AC53"/>
<path d="M62.1126 124.491C62.1093 124.491 62.1073 124.485 62.1057 124.484C61.8691 124.271 61.5702 124.139 61.253 124.108C60.9358 124.077 60.617 124.149 60.3435 124.312C60.3004 124.336 60.262 124.363 60.2202 124.392C59.8105 124.675 59.494 125.075 59.2217 125.494C58.0767 127.264 57.6199 129.392 57.9375 131.476C58.0429 132.148 58.2595 132.853 58.7974 133.271C59.3929 133.731 60.2651 133.705 60.9334 133.36C61.6017 133.014 62.0885 132.396 62.4553 131.74C63.2624 130.285 63.5586 128.603 63.2966 126.96C63.1467 126.041 62.7988 125.118 62.1126 124.491Z" fill="#79AC53"/>
<path d="M35.1772 201.877C35.1947 201.377 35.1675 200.867 34.995 200.399C34.9781 200.351 34.9592 200.306 34.9401 200.262C34.81 199.971 34.5896 199.729 34.3113 199.573C34.033 199.417 33.7115 199.354 33.3942 199.394C33.3942 199.394 33.3887 199.397 33.3872 199.398C32.4604 199.519 31.6427 200.078 30.9907 200.746C29.8278 201.944 29.0985 203.494 28.9188 205.151C28.841 205.899 28.8835 206.685 29.2314 207.353C29.5792 208.021 30.2789 208.54 31.0329 208.505C31.7148 208.473 32.3003 208.016 32.7738 207.527C34.2376 205.997 35.0923 203.988 35.1772 201.877Z" fill="#79AC53"/>
<path d="M37.0422 214.201C37.7526 214.005 38.2594 213.382 38.64 212.75C39.8121 210.783 40.2255 208.455 39.8026 206.202C39.6985 205.671 39.5461 205.139 39.2507 204.683C39.2204 204.637 39.1902 204.595 39.1578 204.552C38.9504 204.275 38.6596 204.072 38.3283 203.973C37.9969 203.874 37.6427 203.884 37.3178 204.002C37.3151 204.002 37.3126 204.004 37.3105 204.005C36.362 204.355 35.6354 205.141 35.1089 206.004C34.1733 207.547 33.781 209.361 33.9946 211.155C34.0924 211.966 34.3307 212.788 34.859 213.411C35.3874 214.033 36.2522 214.42 37.0422 214.201Z" fill="#79AC53"/>
<path d="M46.2061 213.747C46.7757 213.156 47.0648 212.348 47.2155 211.542C47.5438 209.76 47.2649 207.922 46.4233 206.32C45.9491 205.424 45.2687 204.593 44.342 204.185C44.3381 204.183 44.3344 204.183 44.333 204.181C44.0146 204.044 43.6603 204.012 43.3219 204.091C42.9836 204.169 42.6791 204.354 42.4533 204.618C42.4178 204.66 42.384 204.702 42.3521 204.744C42.0262 205.18 41.8379 205.704 41.7027 206.231C41.1357 208.459 41.4036 210.813 42.4559 212.853C42.7971 213.506 43.2681 214.161 43.9678 214.402C44.7433 214.667 45.6365 214.338 46.2061 213.747Z" fill="#79AC53"/>
<path d="M36.3201 190.632C35.025 190.749 33.9932 191.902 33.6919 193.167C33.3907 194.433 33.6989 195.769 34.1933 196.971C35.0817 199.129 37.1187 201.569 39.1153 202.764C39.6419 203.078 40.2397 203.253 40.8524 203.273C41.4652 203.292 42.0727 203.156 42.618 202.876C44.6857 201.807 46.8669 199.498 47.887 197.4C48.4556 196.23 48.8431 194.914 48.6214 193.634C48.3996 192.354 47.4389 191.138 46.1542 190.939C44.4617 190.676 43.035 192.164 41.1976 192.108C39.3602 192.052 38.0261 190.475 36.3201 190.632Z" fill="#79AC53"/>
<path d="M48.5438 199.909C48.5409 199.911 48.5363 199.907 48.5345 199.907C48.2213 199.849 47.8976 199.893 47.6109 200.032C47.3243 200.171 47.0899 200.399 46.9421 200.681C46.9179 200.724 46.8994 200.767 46.8787 200.814C46.6771 201.269 46.6166 201.776 46.6033 202.275C46.552 204.383 47.2743 206.435 48.6339 208.046C49.075 208.564 49.6283 209.052 50.3053 209.128C51.053 209.208 51.7835 208.731 52.1728 208.087C52.5621 207.443 52.6539 206.662 52.624 205.911C52.552 204.249 51.9253 202.659 50.8437 201.396C50.2357 200.691 49.4568 200.085 48.5438 199.909Z" fill="#79AC53"/>
<path d="M42.4185 278.521C42.2669 278.045 42.0696 277.573 41.7501 277.191C41.7181 277.151 41.6849 277.114 41.6521 277.079C41.4318 276.849 41.143 276.696 40.8284 276.642C40.5138 276.589 40.19 276.637 39.9046 276.782C39.9046 276.782 39.9003 276.786 39.8992 276.787C39.0669 277.213 38.4849 278.015 38.0951 278.862C37.4025 280.382 37.2368 282.087 37.6242 283.708C37.8023 284.438 38.1066 285.164 38.6587 285.677C39.2107 286.189 40.0444 286.443 40.7426 286.156C41.3742 285.897 41.7719 285.27 42.0534 284.65C42.918 282.717 43.0479 280.538 42.4185 278.521Z" fill="#79AC53"/>
<path d="M48.3168 289.502C48.9199 289.078 49.1879 288.321 49.334 287.598C49.7768 285.351 49.3836 283.019 48.2282 281.04C47.9516 280.575 47.6295 280.125 47.198 279.795C47.154 279.762 47.1113 279.732 47.0665 279.703C46.7781 279.512 46.4359 279.418 46.0905 279.436C45.7451 279.454 45.4149 279.583 45.1485 279.803C45.1462 279.804 45.1443 279.806 45.1429 279.809C44.3668 280.456 43.947 281.441 43.7409 282.431C43.3785 284.199 43.6185 286.039 44.4228 287.657C44.7875 288.388 45.288 289.082 45.9949 289.491C46.7019 289.9 47.6463 289.973 48.3168 289.502Z" fill="#79AC53"/>
<path d="M56.795 285.994C57.1328 285.246 57.1335 284.387 57.0047 283.578C56.7149 281.789 55.8343 280.151 54.5033 278.926C53.7557 278.241 52.8355 277.687 51.8257 277.615C51.8213 277.614 51.8179 277.615 51.8158 277.614C51.4699 277.591 51.1254 277.681 50.8332 277.869C50.541 278.056 50.3163 278.333 50.1923 278.657C50.1729 278.708 50.1553 278.76 50.1394 278.81C49.979 279.33 49.9777 279.887 50.0277 280.429C50.2422 282.717 51.2859 284.845 52.9623 286.412C53.5034 286.913 54.1669 287.371 54.9071 287.363C55.7264 287.352 56.4572 286.742 56.795 285.994Z" fill="#79AC53"/>
<path d="M39.7153 267.546C38.5349 268.091 37.9507 269.524 38.0922 270.817C38.2338 272.11 38.9733 273.266 39.8427 274.231C41.4047 275.965 44.1434 277.578 46.4256 278.033C47.0271 278.152 47.6489 278.116 48.2326 277.928C48.8162 277.741 49.3425 277.408 49.762 276.961C51.3503 275.26 52.6285 272.352 52.8841 270.033C53.0265 268.74 52.9493 267.371 52.3102 266.239C51.6711 265.108 50.3576 264.286 49.0808 264.53C47.3983 264.851 46.5546 266.732 44.8053 267.297C43.056 267.862 41.2697 266.825 39.7153 267.546Z" fill="#79AC53"/>
<path d="M54.346 272.175C54.3438 272.178 54.3382 272.176 54.3365 272.176C54.022 272.227 53.7318 272.377 53.5087 272.604C53.2856 272.832 53.1412 273.125 53.0969 273.441C53.0886 273.489 53.0857 273.536 53.0818 273.587C53.0448 274.083 53.1583 274.581 53.3135 275.056C53.9736 277.058 55.3437 278.749 57.1656 279.809C57.7551 280.148 58.4403 280.422 59.1033 280.265C59.8345 280.09 60.3621 279.395 60.5124 278.658C60.6627 277.921 60.4865 277.154 60.2059 276.456C59.5796 274.915 58.4552 273.629 57.0118 272.802C56.2022 272.343 55.2651 272.034 54.346 272.175Z" fill="#79AC53"/>
<path d="M73.8934 347.8C73.5206 347.466 73.1109 347.16 72.6416 346.993C72.594 346.975 72.5469 346.96 72.5008 346.947C72.194 346.86 71.8674 346.875 71.5692 346.988C71.271 347.102 71.0168 347.309 70.8442 347.578C70.8442 347.578 70.8428 347.584 70.8425 347.585C70.3416 348.375 70.2475 349.361 70.3422 350.289C70.5173 351.95 71.2407 353.503 72.3975 354.702C72.9219 355.241 73.5529 355.712 74.2885 355.873C75.0242 356.034 75.8715 355.829 76.3274 355.228C76.7397 354.684 76.7637 353.941 76.6914 353.264C76.4547 351.16 75.4596 349.217 73.8934 347.8Z" fill="#79AC53"/>
<path d="M84.5509 354.263C84.8552 353.591 84.7018 352.803 84.4602 352.106C83.7008 349.946 82.1777 348.137 80.1772 347.019C79.7025 346.758 79.1968 346.535 78.6574 346.469C78.6026 346.463 78.5506 346.459 78.4973 346.457C78.1517 346.438 77.8094 346.532 77.521 346.723C77.2326 346.913 77.0135 347.192 76.8958 347.517C76.8946 347.519 76.894 347.522 76.894 347.525C76.5544 348.477 76.693 349.539 77.0179 350.495C77.6039 352.203 78.745 353.666 80.2596 354.651C80.945 355.096 81.7285 355.439 82.5453 355.432C83.362 355.426 84.2128 355.009 84.5509 354.263Z" fill="#79AC53"/>
<path d="M90.0728 346.935C89.9838 346.119 89.5485 345.379 89.0264 344.747C87.8684 343.354 86.2779 342.39 84.5087 342.01C83.5172 341.8 82.4431 341.79 81.5365 342.241C81.5323 342.242 81.53 342.245 81.5275 342.245C81.2181 342.402 80.9667 342.653 80.8104 342.964C80.654 343.274 80.6009 343.626 80.6588 343.968C80.6682 344.022 80.679 344.075 80.6908 344.127C80.8167 344.656 81.0983 345.136 81.4169 345.578C82.7638 347.44 84.7436 348.743 86.9834 349.242C87.7041 349.399 88.5083 349.456 89.1419 349.073C89.8419 348.647 90.1617 347.751 90.0728 346.935Z" fill="#79AC53"/>
<path d="M65.9904 339.718C65.2505 340.787 65.475 342.318 66.2537 343.36C67.0324 344.402 68.2562 345.022 69.4955 345.412C71.7214 346.112 74.9003 346.111 77.0972 345.344C77.6757 345.141 78.1931 344.794 78.6006 344.336C79.008 343.878 79.2923 343.324 79.4267 342.726C79.9309 340.454 79.555 337.299 78.5973 335.172C78.0635 333.986 77.3015 332.846 76.1765 332.196C75.0514 331.546 73.5023 331.505 72.5267 332.364C71.2402 333.495 71.4686 335.543 70.2486 336.918C69.0287 338.293 66.9634 338.308 65.9904 339.718Z" fill="#79AC53"/>
<path d="M80.9449 336.275C80.9442 336.278 80.9384 336.279 80.9373 336.281C80.692 336.484 80.5182 336.761 80.4416 337.07C80.365 337.379 80.3895 337.705 80.5115 337.999C80.5291 338.046 80.5505 338.088 80.5727 338.133C80.793 338.58 81.1436 338.951 81.5184 339.281C83.104 340.67 85.1428 341.431 87.2506 341.419C87.9309 341.412 88.6602 341.3 89.1518 340.828C89.6926 340.306 89.7941 339.439 89.5492 338.728C89.3044 338.016 88.7629 337.445 88.1671 336.987C86.8449 335.977 85.223 335.44 83.5599 335.462C82.6289 335.477 81.6651 335.687 80.9449 336.275Z" fill="#79AC53"/>
</svg>
