<svg width="232" height="247" viewBox="0 0 232 247" fill="none" xmlns="http://www.w3.org/2000/svg">
<path d="M155.736 153.616C153.27 157.744 151.13 162.172 150.415 166.905C150.335 167.388 150.283 167.859 150.239 168.319C149.985 171.372 150.721 174.427 152.34 177.033C153.958 179.638 156.374 181.658 159.23 182.793C159.23 182.793 159.289 182.795 159.305 182.796C167.669 186.075 177.149 185.156 185.734 182.561C201.082 177.867 214.413 168.195 223.608 155.082C227.732 149.146 231.02 142.33 231.189 135.094C231.358 127.857 227.876 120.238 221.365 117.038C215.476 114.144 208.426 115.278 202.171 117.201C182.753 123.29 166.239 136.24 155.736 153.616Z" fill="#09E239"/>
<path d="M197.191 41.2055C190.3 39.5641 183.145 42.4559 177.008 46.0129C158.019 57.1362 143.739 74.8231 136.853 95.7489C135.266 100.704 134.083 105.886 134.456 111.095C134.496 111.624 134.553 112.122 134.63 112.629C135.091 115.924 136.597 118.983 138.927 121.354C141.257 123.725 144.286 125.283 147.568 125.797C147.594 125.804 147.621 125.805 147.647 125.8C157.251 127.26 167.016 124.007 175.449 119.188C190.486 110.53 202.199 97.0818 208.722 80.985C211.66 73.703 213.464 65.681 211.905 57.9865C210.345 50.292 204.857 43.0274 197.191 41.2055Z" fill="#09E239"/>
<path d="M117.93 2.53093C110.393 4.86533 104.211 10.3286 99.2059 16.4123C88.1781 29.8927 81.9992 46.6658 81.6547 64.056C81.4933 73.7961 83.3662 83.9498 89.2785 91.6789C89.301 91.7151 89.332 91.732 89.3351 91.7557C91.3783 94.3883 94.2149 96.2986 97.4282 97.2058C100.641 98.1129 104.062 97.9691 107.186 96.7954C107.679 96.6076 108.161 96.4076 108.623 96.2031C113.389 94.044 117.403 90.5071 120.989 86.6913C136.092 70.5702 144.757 49.5025 145.355 27.4546C145.515 20.3667 144.585 12.6733 139.813 7.39581C134.511 1.57174 125.466 0.196525 117.93 2.53093Z" fill="#09E239"/>
<path d="M93.9593 242.991C105.404 248.013 119.439 243.09 127.845 233.833C136.251 224.576 139.855 211.893 141.265 199.484C143.792 177.198 137.961 147.204 126.695 127.881C123.717 122.794 119.496 118.549 114.428 115.543C109.36 112.537 103.611 110.87 97.7212 110.698C75.3576 110.104 46.2844 119.43 27.9641 132.366C17.7529 139.576 8.38834 148.855 4.31786 160.662C0.247382 172.468 2.69661 187.161 12.5918 194.792C25.6195 204.859 44.5309 198.95 59.7411 207.941C74.9513 216.933 78.8707 236.395 93.9593 242.991Z" fill="#09E239"/>
<path d="M34.072 108.192C34.1035 108.193 34.1254 108.245 34.1409 108.254C36.508 110.196 39.4366 111.328 42.4961 111.485C45.5555 111.641 48.5844 110.813 51.1372 109.122C51.5403 108.872 51.8971 108.593 52.286 108.299C56.0943 105.403 58.9547 101.415 61.3826 97.2732C71.5892 79.7662 75.0283 59.1343 71.0513 39.2683C69.7403 32.8618 67.3462 26.1853 61.9955 22.4108C56.0739 18.2659 47.7102 18.8961 41.4473 22.5101C35.1844 26.1241 30.7852 32.2804 27.5547 38.7413C20.4528 53.067 18.358 69.355 21.6041 85.0089C23.4524 93.7657 27.2035 102.475 34.072 108.192Z" fill="#09E239"/>
<path d="M159.524 155.465C157.423 158.982 155.6 162.754 154.991 166.786C154.923 167.197 154.878 167.598 154.841 167.99C154.625 170.591 155.252 173.193 156.631 175.413C158.009 177.633 160.067 179.353 162.5 180.32C162.5 180.32 162.551 180.322 162.564 180.322C169.689 183.116 177.765 182.333 185.078 180.123C198.152 176.124 209.508 167.884 217.341 156.714C220.854 151.658 223.655 145.851 223.799 139.687C223.943 133.523 220.977 127.032 215.43 124.306C210.414 121.841 204.408 122.807 199.08 124.445C182.539 129.632 168.471 140.664 159.524 155.465Z" fill="white"/>
<path d="M192.402 49.5094C186.433 48.0876 180.236 50.5925 174.92 53.6736C158.471 63.3087 146.102 78.6292 140.137 96.7553C138.762 101.048 137.738 105.537 138.061 110.048C138.096 110.507 138.145 110.938 138.212 111.377C138.611 114.231 139.916 116.88 141.934 118.935C143.952 120.989 146.576 122.338 149.419 122.783C149.441 122.789 149.464 122.79 149.487 122.786C157.806 124.051 166.265 121.233 173.569 117.058C186.595 109.559 196.74 97.9099 202.391 83.9667C204.935 77.659 206.498 70.7102 205.148 64.0452C203.797 57.3802 199.043 51.0875 192.402 49.5094Z" fill="white"/>
<path d="M115.984 11.5373C109.856 13.4353 104.83 17.8773 100.76 22.8237C91.7937 33.7842 86.7699 47.4217 86.4898 61.5611C86.3585 69.4804 87.8813 77.736 92.6884 84.0202C92.7066 84.0497 92.7319 84.0634 92.7344 84.0827C94.3956 86.2232 96.702 87.7764 99.3146 88.514C101.927 89.2515 104.708 89.1345 107.248 88.1802C107.649 88.0276 108.041 87.865 108.416 87.6987C112.291 85.9432 115.556 83.0675 118.471 79.965C130.75 66.8575 137.796 49.7282 138.282 31.8018C138.412 26.0389 137.656 19.7837 133.776 15.4928C129.465 10.7574 122.111 9.63928 115.984 11.5373Z" fill="white"/>
<path d="M91.3194 229.558C100.724 233.685 112.256 229.639 119.163 222.033C126.07 214.426 129.031 204.005 130.19 193.809C132.267 175.496 127.475 150.851 118.218 134.973C115.771 130.794 112.303 127.305 108.138 124.835C103.974 122.365 99.2498 120.995 94.4105 120.854C76.0345 120.366 52.1453 128.029 37.0917 138.658C28.7013 144.583 21.0065 152.207 17.6619 161.909C14.3172 171.61 16.3297 183.683 24.4605 189.953C35.1652 198.225 50.7045 193.37 63.2026 200.758C75.7007 208.146 78.9212 224.138 91.3194 229.558Z" fill="white"/>
<path d="M36.5634 100.732C36.5896 100.733 36.6077 100.776 36.6206 100.783C38.5849 102.394 41.0151 103.334 43.5539 103.464C46.0928 103.593 48.6062 102.906 50.7246 101.503C51.0591 101.296 51.3552 101.064 51.6779 100.82C54.8381 98.4173 57.2118 95.1075 59.2265 91.6708C67.6962 77.143 70.5501 60.022 67.2498 43.5367C66.1619 38.2205 64.1752 32.6801 59.735 29.5479C54.8212 26.1084 47.8807 26.6313 42.6836 29.6303C37.4865 32.6293 33.836 37.738 31.1552 43.0994C25.2619 54.9872 23.5235 68.5035 26.2172 81.4935C27.751 88.7601 30.8637 95.987 36.5634 100.732Z" fill="white"/>
</svg>
