<svg width="142" height="151" viewBox="0 0 142 151" fill="none" xmlns="http://www.w3.org/2000/svg">
<path d="M94.8779 93.586C93.3754 96.1012 92.0715 98.7986 91.6359 101.682C91.5871 101.976 91.5554 102.263 91.5288 102.543C91.3739 104.404 91.8225 106.265 92.8086 107.852C93.7946 109.44 95.2661 110.67 97.0063 111.361C97.0063 111.361 97.0424 111.363 97.052 111.363C102.148 113.361 107.923 112.801 113.153 111.22C122.503 108.361 130.625 102.468 136.227 94.4792C138.739 90.8631 140.742 86.7105 140.845 82.302C140.948 77.8935 138.827 73.2514 134.86 71.3022C131.273 69.5391 126.977 70.2301 123.167 71.4015C111.337 75.1109 101.277 83.0005 94.8779 93.586Z" fill="#DA00C4"/>
<path d="M120.133 25.104C115.935 24.104 111.576 25.8658 107.837 28.0328C96.2685 34.8094 87.569 45.5846 83.3737 58.3331C82.4066 61.352 81.6861 64.5091 81.9131 67.6824C81.9378 68.0046 81.9727 68.3079 82.0194 68.6165C82.3 70.6238 83.2178 72.4875 84.6372 73.9322C86.0565 75.3768 87.9022 76.3259 89.9016 76.6391C89.9172 76.6434 89.9335 76.6439 89.9494 76.6408C95.8008 77.5305 101.75 75.5484 106.887 72.6124C116.048 67.3381 123.184 59.1451 127.158 49.3385C128.948 44.9022 130.047 40.015 129.097 35.3274C128.147 30.6397 124.803 26.214 120.133 25.104Z" fill="#DA00C4"/>
<path d="M71.8454 1.54189C67.254 2.96406 63.4877 6.29243 60.4384 9.9987C53.72 18.2113 49.9557 28.4298 49.7458 39.0243C49.6475 44.9581 50.7885 51.144 54.3904 55.8527C54.4041 55.8748 54.423 55.8851 54.4249 55.8995C55.6696 57.5034 57.3978 58.6672 59.3553 59.2198C61.3129 59.7725 63.3966 59.6848 65.3002 58.9698C65.6005 58.8554 65.8939 58.7336 66.1753 58.6089C69.0787 57.2936 71.5247 55.1389 73.7092 52.8142C82.9099 42.9929 88.1894 30.158 88.5535 16.7259C88.6509 12.4078 88.0842 7.72085 85.1772 4.50568C81.9469 0.957538 76.4367 0.119727 71.8454 1.54189Z" fill="#DA00C4"/>
<path d="M57.242 148.036C64.2146 151.095 72.765 148.096 77.8859 142.456C83.0068 136.817 85.2026 129.09 86.0617 121.531C87.6014 107.953 84.0487 89.6804 77.1852 77.9082C75.3713 74.8094 72.7997 72.2229 69.712 70.3917C66.6243 68.5605 63.1218 67.5448 59.5338 67.44C45.9095 67.0782 28.1974 72.7599 17.0363 80.6404C10.8154 85.033 5.11036 90.6861 2.63054 97.879C0.150715 105.072 1.64284 114.023 7.67119 118.672C15.608 124.805 27.1292 121.205 36.3956 126.683C45.662 132.161 48.0497 144.017 57.242 148.036Z" fill="#DA00C4"/>
<path d="M20.7573 65.9128C20.7765 65.9135 20.7899 65.9451 20.7993 65.9503C22.2414 67.1334 24.0256 67.8233 25.8895 67.9184C27.7533 68.0136 29.5986 67.5091 31.1538 66.479C31.3994 66.3268 31.6168 66.1568 31.8537 65.9779C34.1738 64.2136 35.9164 61.7837 37.3955 59.2606C43.6136 48.5949 45.7088 36.0256 43.2859 23.9228C42.4872 20.0198 41.0287 15.9523 37.7689 13.6528C34.1613 11.1277 29.066 11.5116 25.2505 13.7133C21.435 15.915 18.7549 19.6656 16.7869 23.6017C12.4602 32.3292 11.184 42.2522 13.1616 51.7889C14.2877 57.1237 16.5729 62.4294 20.7573 65.9128Z" fill="#DA00C4"/>
<path d="M97.1857 94.7123C95.9058 96.8549 94.795 99.1527 94.424 101.609C94.3825 101.859 94.3554 102.104 94.3328 102.343C94.2008 103.927 94.5829 105.513 95.4229 106.865C96.2629 108.217 97.5164 109.265 98.9988 109.854C98.9988 109.854 99.0295 109.856 99.0377 109.856C103.378 111.558 108.298 111.081 112.753 109.734C120.718 107.298 127.637 102.278 132.409 95.4731C134.549 92.3928 136.255 88.8554 136.343 85.1C136.431 81.3446 134.624 77.3901 131.245 75.7297C128.189 74.2279 124.53 74.8165 121.284 75.8143C111.207 78.9742 102.636 85.695 97.1857 94.7123Z" fill="white"/>
<path d="M117.215 30.1617C113.579 29.2955 109.803 30.8215 106.565 32.6986C96.5442 38.5685 89.0086 47.9021 85.3746 58.9449C84.5369 61.56 83.9128 64.2946 84.1095 67.0433C84.1308 67.3224 84.1611 67.5852 84.2015 67.8525C84.4446 69.5913 85.2396 71.2056 86.4691 72.4569C87.6985 73.7083 89.2973 74.5304 91.0291 74.8018C91.0426 74.8054 91.0568 74.8059 91.0705 74.8032C96.1391 75.5739 101.292 73.857 105.742 71.3138C113.677 66.7451 119.858 59.6483 123.301 51.1538C124.851 47.311 125.803 43.0777 124.98 39.0172C124.157 34.9567 121.261 31.1231 117.215 30.1617Z" fill="white"/>
<path d="M70.6599 7.02856C66.9269 8.18487 63.8646 10.891 61.3853 13.9045C55.9229 20.5818 52.8622 28.8901 52.6916 37.5041C52.6116 42.3287 53.5393 47.3582 56.4679 51.1867C56.479 51.2046 56.4944 51.213 56.496 51.2248C57.508 52.5288 58.9131 53.475 60.5047 53.9244C62.0963 54.3737 63.7905 54.3025 65.3382 53.7211C65.5824 53.6281 65.821 53.529 66.0498 53.4277C68.4105 52.3582 70.3992 50.6063 72.1753 48.7162C79.6561 40.7308 83.9486 30.2952 84.2447 19.3741C84.3239 15.8632 83.8631 12.0524 81.4995 9.43831C78.8731 6.55344 74.393 5.87225 70.6599 7.02856Z" fill="white"/>
<path d="M55.6337 139.852C61.3629 142.366 68.3887 139.902 72.5966 135.268C76.8044 130.633 78.6086 124.284 79.3145 118.073C80.5796 106.917 77.6604 91.902 72.0208 82.2289C70.5303 79.6826 68.4173 77.5573 65.8801 76.0526C63.343 74.548 60.465 73.7134 57.5168 73.6273C46.3218 73.33 31.768 77.9986 22.597 84.4739C17.4854 88.0833 12.7976 92.7283 10.7599 98.6387C8.72228 104.549 9.94834 111.904 14.9018 115.724C21.4234 120.763 30.8902 117.805 38.5043 122.306C46.1184 126.808 48.0804 136.55 55.6337 139.852Z" fill="white"/>
<path d="M22.2752 61.3684C22.2911 61.369 22.3022 61.3952 22.31 61.3995C23.5067 62.3813 24.9872 62.9538 26.5339 63.0327C28.0806 63.1117 29.6119 62.693 30.9025 61.8383C31.1062 61.712 31.2866 61.5709 31.4832 61.4224C33.4085 59.9584 34.8546 57.9419 36.082 55.8482C41.2419 46.9976 42.9805 36.5672 40.97 26.5239C40.3072 23.2852 39.0969 19.9098 36.3918 18.0017C33.3982 15.9062 29.1699 16.2248 26.0037 18.0519C22.8375 19.8789 20.6135 22.9912 18.9804 26.2575C15.39 33.4999 14.331 41.7342 15.972 49.648C16.9065 54.075 18.8028 58.4778 22.2752 61.3684Z" fill="white"/>
</svg>

