<svg width="18" height="17" viewBox="0 0 18 17" fill="none" xmlns="http://www.w3.org/2000/svg">
<path d="M15.2674 3.51046V0.650424C15.2674 0.582949 15.2643 0.515473 15.2704 0.448448C15.2949 0.178549 15.4796 -0.00588267 15.7238 -0.00138434C15.9681 0.00311399 16.1514 0.187995 16.1663 0.457895C16.1737 0.592845 16.1663 0.727795 16.1663 0.862745C16.1663 2.16456 16.1663 3.46668 16.1663 4.76909V5.03C16.1083 5.03933 16.0499 5.04564 15.9912 5.04889C14.5782 5.04889 13.1653 5.04889 11.7526 5.04889C11.3731 5.04889 11.1442 4.74075 11.2786 4.41687C11.3661 4.20275 11.5377 4.13303 11.7543 4.13393C12.606 4.13708 13.4581 4.13393 14.3102 4.13393H14.5908C14.1984 3.62775 13.7421 3.17756 13.234 2.79523C9.02598 -0.376994 3.00036 2.02646 1.97931 7.28411C1.23836 11.1005 3.51723 14.8467 7.18739 15.8462C11.2077 16.9411 15.3278 14.2358 16.0403 10.0281C16.1094 9.61694 16.1304 9.1968 16.1602 8.7798C16.1834 8.45682 16.3466 8.26699 16.6232 8.27464C16.888 8.28274 17.0491 8.47707 17.0499 8.78925C17.0591 12.7082 14.2441 16.1665 10.4755 16.8624C6.28539 17.6415 2.30142 15.0379 1.20816 10.8068C0.0737611 6.41593 2.71807 1.76736 7.01846 0.720597C10.195 -0.0531154 12.9115 0.858696 15.1177 3.34312C15.1518 3.38181 15.1864 3.42005 15.2674 3.51046Z" fill="white"/>
</svg>
