<svg width="148" height="368" viewBox="0 0 148 368" fill="none" xmlns="http://www.w3.org/2000/svg">
<path d="M46.0575 14.6409C45.6354 14.3723 45.2296 14.0607 44.942 13.654C44.912 13.6129 44.8852 13.5716 44.8596 13.5309C44.6933 13.2589 44.6191 12.9405 44.6479 12.6227C44.6766 12.3049 44.8068 12.0043 45.0193 11.7653C45.0193 11.7653 45.0247 11.7624 45.0261 11.7616C45.6505 11.066 46.5747 10.7086 47.4939 10.5488C49.1399 10.2682 50.831 10.5447 52.2983 11.3341C52.9589 11.6932 53.583 12.1733 53.9367 12.8381C54.2904 13.5029 54.3228 14.3738 53.8669 14.9754C53.4547 15.5195 52.7463 15.7434 52.075 15.8569C49.9855 16.1979 47.8455 15.7654 46.0575 14.6409Z" fill="#79AC53"/>
<path d="M55.1616 23.1536C54.5977 23.6281 53.7975 23.6935 53.0609 23.6495C50.776 23.5025 48.6224 22.5254 47.0047 20.9018C46.6257 20.5153 46.2737 20.0888 46.065 19.5872C46.0441 19.5361 46.0261 19.4872 46.0096 19.4365C45.8985 19.1087 45.8956 18.7539 46.0014 18.4247C46.1073 18.0954 46.3161 17.8091 46.5972 17.608C46.5992 17.6061 46.6017 17.6048 46.6043 17.604C47.429 17.0196 48.4887 16.8659 49.4977 16.92C51.3 17.0224 53.017 17.7254 54.3753 18.9171C54.9886 19.4567 55.531 20.1182 55.7455 20.9063C55.96 21.6944 55.7891 22.6261 55.1616 23.1536Z" fill="#79AC53"/>
<path d="M49.6003 30.4513C48.7907 30.5863 47.9608 30.3673 47.2113 30.0355C45.5565 29.2975 44.1986 28.0269 43.3542 26.4264C42.8842 25.5286 42.584 24.4972 42.7726 23.5025C42.773 23.4981 42.7751 23.4951 42.7743 23.4927C42.8412 23.1525 43.0157 22.8425 43.272 22.608C43.5283 22.3736 43.853 22.2272 44.1983 22.1904C44.2529 22.1848 44.307 22.1809 44.3595 22.1783C44.9034 22.1564 45.4418 22.2976 45.9534 22.4849C48.1104 23.278 49.9001 24.8316 50.9855 26.8533C51.3315 27.5047 51.6044 28.2633 51.4073 28.9768C51.1865 29.7659 50.41 30.3163 49.6003 30.4513Z" fill="#79AC53"/>
<path d="M36.1395 9.21804C36.9688 8.21658 38.5035 8.01861 39.7173 8.48652C40.9311 8.95442 41.8586 9.96506 42.5694 11.0527C43.8453 13.0063 44.7043 16.067 44.5597 18.3895C44.5205 19.0014 44.3265 19.5933 43.9957 20.1095C43.665 20.6256 43.2084 21.0492 42.669 21.3403C40.6178 22.4401 37.4795 22.9313 35.1722 22.5846C33.8862 22.3913 32.5822 21.9662 31.6523 21.0588C30.7224 20.1514 30.2637 18.6711 30.8271 17.4995C31.5679 15.9551 33.6019 15.621 34.5959 14.0747C35.5898 12.5283 35.045 10.5361 36.1395 9.21804Z" fill="#79AC53"/>
<path d="M36.8691 24.5464C36.872 24.5448 36.8716 24.5389 36.8727 24.5374C37.002 24.2463 37.2213 24.0042 37.4985 23.8468C37.7756 23.6894 38.0958 23.6249 38.4121 23.6628C38.4612 23.6672 38.5074 23.6765 38.5573 23.6856C39.0466 23.7769 39.4988 24.0141 39.918 24.2856C41.6846 25.4363 42.9681 27.1936 43.5264 29.2261C43.7037 29.8829 43.7931 30.6154 43.472 31.2162C43.1151 31.8781 42.3082 32.2102 41.5572 32.1668C40.8062 32.1234 40.1097 31.7566 39.5075 31.307C38.1782 30.307 37.2226 28.8907 36.7931 27.2839C36.5559 26.3835 36.4977 25.3987 36.8691 24.5464Z" fill="#79AC53"/>
<path d="M95.1303 89.8737C94.8876 89.4362 94.6798 88.9686 94.6213 88.474C94.6146 88.4236 94.6107 88.3745 94.6077 88.3265C94.5915 88.0081 94.6783 87.693 94.8553 87.4274C95.0323 87.1619 95.2902 86.96 95.591 86.8514C95.591 86.8514 95.5971 86.8514 95.5988 86.8514C96.4795 86.5383 97.4621 86.6655 98.3461 86.964C99.9264 87.5034 101.28 88.5536 102.193 89.9479C102.602 90.5788 102.921 91.2986 102.914 92.0516C102.908 92.8046 102.52 93.5853 101.832 93.8963C101.21 94.1775 100.481 94.036 99.8371 93.8152C97.8383 93.1173 96.1644 91.7155 95.1303 89.8737Z" fill="#79AC53"/>
<path d="M99.0653 101.7C98.3433 101.848 97.609 101.523 96.9827 101.133C95.0453 99.913 93.6195 98.0261 92.9733 95.8272C92.8248 95.3066 92.7191 94.7638 92.7753 94.2235C92.7813 94.1686 92.7889 94.117 92.7985 94.0646C92.8574 93.7235 93.0243 93.4105 93.2745 93.1717C93.5247 92.9329 93.8449 92.781 94.1879 92.7385C94.1905 92.7379 94.1933 92.7378 94.196 92.7385C95.1996 92.6187 96.2042 92.9896 97.0649 93.5189C98.5996 94.4693 99.7727 95.9068 100.397 97.6024C100.678 98.3694 100.839 99.2096 100.651 100.004C100.464 100.799 99.8686 101.536 99.0653 101.7Z" fill="#79AC53"/>
<path d="M90.6946 105.457C89.9188 105.189 89.2942 104.601 88.794 103.951C87.6923 102.513 87.1058 100.748 87.1281 98.9385C87.1438 97.9252 87.3725 96.8756 88.013 96.0917C88.0155 96.088 88.0188 96.0864 88.0192 96.0839C88.2404 95.817 88.5418 95.6278 88.8789 95.5442C89.2161 95.4606 89.5712 95.487 89.8922 95.6195C89.9429 95.6406 89.9923 95.663 90.0396 95.6858C90.528 95.9263 90.9336 96.3074 91.2938 96.7162C92.8103 98.4429 93.6411 100.663 93.6296 102.957C93.6226 103.695 93.5002 104.492 92.9864 105.024C92.4156 105.612 91.4705 105.725 90.6946 105.457Z" fill="#79AC53"/>
<path d="M89.0049 80.3735C90.2118 79.8895 91.6547 80.4483 92.4979 81.439C93.341 82.4296 93.6734 83.7605 93.7786 85.0554C93.967 87.3813 93.2605 90.4806 92.0245 92.4523C91.6979 92.9713 91.2448 93.3987 90.7078 93.6943C90.1707 93.9899 89.5674 94.1441 88.9544 94.1423C86.627 94.1294 83.635 93.0626 81.7732 91.6563C80.7355 90.8725 79.7927 89.8764 79.4089 88.6351C79.025 87.3938 79.3287 85.8742 80.3832 85.1138C81.7714 84.1104 83.7182 84.788 85.3298 83.9038C86.9414 83.0197 87.4139 81.0091 89.0049 80.3735Z" fill="#79AC53"/>
<path d="M82.3276 94.1903C82.3308 94.1903 82.3333 94.185 82.3349 94.1841C82.5875 93.9901 82.8959 93.8821 83.2145 93.8761C83.5332 93.8701 83.8453 93.9663 84.1051 94.1506C84.1462 94.178 84.1824 94.2082 84.2219 94.24C84.6082 94.5539 84.8923 94.9781 85.1309 95.4169C86.1338 97.2714 86.4225 99.4282 85.9426 101.481C85.7849 102.142 85.5137 102.829 84.9447 103.203C84.3151 103.615 83.4476 103.521 82.8084 103.124C82.1692 102.728 81.7323 102.073 81.418 101.39C80.7273 99.8769 80.5639 98.1763 80.9537 96.5594C81.1751 95.655 81.5943 94.7619 82.3276 94.1903Z" fill="#79AC53"/>
<path d="M120.644 181.911C120.666 181.412 120.733 180.904 120.942 180.452C120.962 180.406 120.985 180.362 121.007 180.319C121.16 180.039 121.398 179.816 121.688 179.682C121.978 179.548 122.303 179.511 122.616 179.575C122.616 179.575 122.622 179.579 122.623 179.579C123.538 179.773 124.309 180.395 124.907 181.111C125.972 182.397 126.578 183.999 126.627 185.665C126.646 186.417 126.542 187.197 126.143 187.836C125.744 188.474 125.006 188.937 124.257 188.843C123.579 188.758 123.032 188.256 122.598 187.732C121.258 186.092 120.564 184.022 120.644 181.911Z" fill="#79AC53"/>
<path d="M117.82 194.051C117.127 193.8 116.67 193.139 116.34 192.479C115.326 190.427 115.096 188.073 115.694 185.86C115.84 185.339 116.033 184.821 116.364 184.39C116.397 184.346 116.431 184.306 116.466 184.266C116.695 184.006 117.001 183.826 117.339 183.754C117.677 183.681 118.029 183.719 118.344 183.862C118.346 183.862 118.349 183.864 118.351 183.866C119.269 184.288 119.932 185.129 120.389 186.03C121.201 187.643 121.45 189.481 121.097 191.253C120.935 192.054 120.634 192.854 120.058 193.434C119.483 194.014 118.59 194.331 117.82 194.051Z" fill="#79AC53"/>
<path d="M108.719 192.88C108.198 192.247 107.973 191.418 107.886 190.603C107.698 188.801 108.12 186.99 109.085 185.459C109.628 184.603 110.371 183.828 111.327 183.494C111.331 183.492 111.335 183.492 111.336 183.491C111.664 183.379 112.02 183.375 112.351 183.48C112.682 183.585 112.971 183.793 113.176 184.073C113.208 184.118 113.238 184.163 113.267 184.207C113.558 184.667 113.704 185.204 113.798 185.741C114.189 188.005 113.737 190.332 112.528 192.283C112.137 192.908 111.616 193.523 110.9 193.709C110.106 193.912 109.241 193.514 108.719 192.88Z" fill="#79AC53"/>
<path d="M120.386 170.611C121.668 170.829 122.606 172.059 122.807 173.344C123.008 174.629 122.597 175.938 122.01 177.097C120.955 179.178 118.733 181.452 116.649 182.487C116.099 182.759 115.49 182.887 114.877 182.858C114.265 182.829 113.67 182.646 113.148 182.324C111.17 181.097 109.177 178.624 108.324 176.452C107.849 175.241 107.566 173.899 107.887 172.64C108.208 171.381 109.261 170.245 110.558 170.147C112.266 170.017 113.572 171.612 115.408 171.7C117.244 171.789 118.697 170.321 120.386 170.611Z" fill="#79AC53"/>
<path d="M107.473 178.902C107.476 178.904 107.481 178.9 107.482 178.901C107.799 178.867 108.119 178.936 108.393 179.098C108.668 179.259 108.884 179.504 109.009 179.797C109.03 179.842 109.045 179.886 109.062 179.934C109.227 180.404 109.248 180.914 109.222 181.413C109.108 183.518 108.227 185.508 106.746 187.007C106.265 187.489 105.676 187.932 104.995 187.954C104.243 187.976 103.552 187.443 103.215 186.771C102.877 186.098 102.847 185.312 102.935 184.566C103.137 182.914 103.886 181.379 105.064 180.204C105.725 179.549 106.549 179.006 107.473 178.902Z" fill="#79AC53"/>
<path d="M114.534 273.976C114.723 273.513 114.957 273.057 115.305 272.702C115.34 272.665 115.376 272.631 115.411 272.598C115.649 272.386 115.949 272.256 116.267 272.227C116.585 272.198 116.904 272.272 117.177 272.439C117.177 272.439 117.181 272.443 117.182 272.445C117.978 272.934 118.496 273.779 118.818 274.655C119.389 276.224 119.421 277.937 118.908 279.522C118.673 280.236 118.313 280.936 117.722 281.404C117.132 281.871 116.281 282.059 115.607 281.719C114.998 281.411 114.65 280.754 114.418 280.114C113.708 278.12 113.749 275.937 114.534 273.976Z" fill="#79AC53"/>
<path d="M107.794 284.46C107.226 283.991 107.018 283.215 106.929 282.483C106.664 280.209 107.238 277.915 108.545 276.032C108.857 275.59 109.214 275.167 109.67 274.871C109.716 274.842 109.761 274.815 109.808 274.79C110.111 274.622 110.459 274.555 110.802 274.6C111.145 274.645 111.464 274.799 111.712 275.04C111.715 275.041 111.716 275.044 111.718 275.046C112.441 275.752 112.782 276.767 112.91 277.77C113.133 279.561 112.749 281.376 111.821 282.926C111.4 283.627 110.847 284.279 110.11 284.631C109.373 284.984 108.426 284.983 107.794 284.46Z" fill="#79AC53"/>
<path d="M99.6167 280.299C99.3386 279.527 99.4051 278.671 99.5969 277.874C100.026 276.114 101.032 274.55 102.455 273.432C103.254 272.809 104.215 272.328 105.227 272.335C105.232 272.335 105.235 272.336 105.237 272.335C105.584 272.34 105.92 272.456 106.197 272.666C106.473 272.876 106.676 273.169 106.774 273.502C106.789 273.555 106.803 273.607 106.815 273.659C106.934 274.19 106.892 274.745 106.799 275.282C106.406 277.546 105.199 279.585 103.405 281.016C102.826 281.473 102.129 281.878 101.392 281.812C100.576 281.737 99.8949 281.072 99.6167 280.299Z" fill="#79AC53"/>
<path d="M118.089 263.246C119.223 263.882 119.693 265.356 119.451 266.634C119.208 267.912 118.381 269.006 117.438 269.901C115.745 271.507 112.889 272.901 110.578 273.176C109.969 273.247 109.352 273.162 108.785 272.929C108.217 272.697 107.719 272.324 107.336 271.845C105.886 270.025 104.839 267.026 104.766 264.694C104.725 263.394 104.909 262.035 105.635 260.957C106.361 259.879 107.735 259.162 108.988 259.506C110.641 259.958 111.335 261.899 113.034 262.599C114.734 263.299 116.596 262.406 118.089 263.246Z" fill="#79AC53"/>
<path d="M103.141 266.715C103.143 266.718 103.148 266.716 103.15 266.717C103.46 266.792 103.737 266.964 103.942 267.209C104.146 267.453 104.267 267.756 104.287 268.074C104.291 268.123 104.29 268.171 104.29 268.221C104.288 268.719 104.136 269.206 103.944 269.668C103.129 271.612 101.631 273.19 99.7318 274.104C99.1175 274.396 98.413 274.616 97.7643 274.408C97.0491 274.176 96.5775 273.441 96.4854 272.695C96.3933 271.948 96.6291 271.197 96.9634 270.524C97.7085 269.037 98.9303 267.842 100.434 267.132C101.277 266.737 102.235 266.503 103.141 266.715Z" fill="#79AC53"/>
<path d="M78.8356 351.64C79.2333 351.336 79.6658 351.063 80.1467 350.933C80.1956 350.919 80.2437 350.908 80.2907 350.898C80.6034 350.836 80.9278 350.876 81.2162 351.013C81.5046 351.15 81.7418 351.376 81.8928 351.657C81.8928 351.657 81.8937 351.664 81.8939 351.665C82.3314 352.491 82.348 353.482 82.1808 354.4C81.8763 356.042 81.0334 357.533 79.7861 358.638C79.2211 359.134 78.5553 359.555 77.8093 359.657C77.0632 359.76 76.2346 359.49 75.8272 358.854C75.4588 358.28 75.493 357.538 75.6181 356.868C76.0189 354.789 77.1632 352.93 78.8356 351.64Z" fill="#79AC53"/>
<path d="M67.7046 357.248C67.4538 356.555 67.6685 355.781 67.9639 355.105C68.8902 353.011 70.5503 351.327 72.6323 350.369C73.1259 350.146 73.6476 349.963 74.1904 349.94C74.2456 349.938 74.2977 349.938 74.351 349.94C74.697 349.949 75.0309 350.069 75.3035 350.282C75.576 350.495 75.7727 350.79 75.8645 351.123C75.8655 351.125 75.8659 351.128 75.8657 351.131C76.1297 352.106 75.9084 353.154 75.5095 354.083C74.7916 355.739 73.5394 357.108 71.9522 357.972C71.2341 358.361 70.4261 358.642 69.6124 358.571C68.7987 358.501 67.9831 358.019 67.7046 357.248Z" fill="#79AC53"/>
<path d="M62.7737 349.51C62.9263 348.704 63.4182 348 63.9882 347.411C65.2518 346.113 66.9128 345.277 68.7064 345.036C69.7113 344.905 70.7829 344.979 71.6515 345.499C71.6555 345.501 71.6576 345.504 71.6601 345.504C71.9563 345.684 72.1871 345.955 72.3187 346.277C72.4503 346.598 72.4757 346.953 72.3912 347.29C72.3776 347.343 72.3626 347.395 72.3468 347.446C72.1798 347.964 71.8614 348.42 71.5092 348.836C70.0206 350.587 67.9449 351.731 65.6728 352.052C64.9421 352.152 64.1359 352.146 63.5342 351.715C62.8697 351.236 62.6211 350.317 62.7737 349.51Z" fill="#79AC53"/>
<path d="M87.3474 344.202C88.0012 345.326 87.6575 346.834 86.7996 347.812C85.9416 348.79 84.673 349.312 83.407 349.604C81.1331 350.127 77.964 349.878 75.834 348.941C75.2731 348.693 74.7846 348.306 74.4142 347.818C74.0438 347.329 73.8038 346.755 73.7167 346.148C73.3921 343.843 74.0138 340.728 75.1353 338.682C75.7604 337.542 76.6093 336.465 77.7818 335.905C78.9544 335.345 80.5019 335.425 81.4072 336.358C82.6012 337.587 82.213 339.611 83.3215 341.077C84.43 342.544 86.4879 342.72 87.3474 344.202Z" fill="#79AC53"/>
<path d="M72.7085 339.598C72.709 339.601 72.7146 339.603 72.7157 339.605C72.9443 339.826 73.0958 340.116 73.148 340.43C73.2001 340.745 73.1502 341.067 73.0055 341.351C72.9844 341.396 72.9597 341.436 72.934 341.48C72.6794 341.907 72.3008 342.25 71.9013 342.55C70.2118 343.811 68.1196 344.409 66.0193 344.232C65.3416 344.172 64.6233 344.003 64.1701 343.494C63.672 342.931 63.6386 342.059 63.9385 341.369C64.2383 340.679 64.8229 340.152 65.4527 339.742C66.85 338.839 68.509 338.431 70.1653 338.582C71.0922 338.67 72.0366 338.956 72.7085 339.598Z" fill="#79AC53"/>
<path d="M57.4295 48.6361C57.0074 48.3675 56.6016 48.0559 56.314 47.6493C56.284 47.6082 56.2572 47.5668 56.2316 47.5261C56.0654 47.2541 55.9911 46.9358 56.0199 46.6179C56.0486 46.3001 56.1788 45.9996 56.3913 45.7606C56.3913 45.7606 56.3967 45.7576 56.3982 45.7568C57.0225 45.0612 57.9467 44.7039 58.8659 44.544C60.5119 44.2635 62.203 44.5399 63.6703 45.3293C64.3309 45.6885 64.955 46.1685 65.3087 46.8333C65.6625 47.4981 65.6948 48.3691 65.2389 48.9706C64.8267 49.5148 64.1183 49.7387 63.447 49.8521C61.3576 50.1931 59.2175 49.7607 57.4295 48.6361Z" fill="#79AC53"/>
<path d="M66.5336 57.1488C65.9697 57.6233 65.1695 57.6887 64.4329 57.6447C62.148 57.4977 59.9944 56.5206 58.3767 54.897C57.9977 54.5105 57.6457 54.084 57.437 53.5824C57.4161 53.5314 57.3981 53.4824 57.3816 53.4317C57.2705 53.1039 57.2677 52.7492 57.3735 52.4199C57.4793 52.0906 57.6881 51.8043 57.9692 51.6032C57.9712 51.6014 57.9737 51.6 57.9763 51.5993C58.801 51.0149 59.8607 50.8612 60.8697 50.9153C62.672 51.0176 64.389 51.7206 65.7473 52.9123C66.3606 53.452 66.903 54.1134 67.1175 54.9015C67.332 55.6897 67.1611 56.6214 66.5336 57.1488Z" fill="#79AC53"/>
<path d="M60.9723 64.4465C60.1627 64.5816 59.3328 64.3625 58.5833 64.0308C56.9285 63.2928 55.5706 62.0222 54.7262 60.4217C54.2562 59.5238 53.956 58.4924 54.1446 57.4977C54.145 57.4933 54.1471 57.4903 54.1463 57.488C54.2132 57.1478 54.3877 56.8377 54.644 56.6033C54.9003 56.3688 55.225 56.2224 55.5703 56.1856C55.6249 56.18 55.679 56.1761 55.7315 56.1736C56.2754 56.1516 56.8138 56.2929 57.3254 56.4801C59.4824 57.2732 61.2721 58.8269 62.3575 60.8485C62.7035 61.4999 62.9764 62.2586 62.7794 62.9721C62.5585 63.7612 61.782 64.3115 60.9723 64.4465Z" fill="#79AC53"/>
<path d="M47.5115 43.2133C48.3408 42.2118 49.8755 42.0139 51.0893 42.4818C52.3032 42.9497 53.2307 43.9603 53.9414 45.0479C55.2174 47.0016 56.0764 50.0622 55.9317 52.3847C55.8925 52.9967 55.6985 53.5885 55.3677 54.1047C55.037 54.6209 54.5804 55.0444 54.041 55.3355C51.9898 56.4354 48.8515 56.9265 46.5442 56.5798C45.2582 56.3865 43.9542 55.9614 43.0243 55.054C42.0944 54.1466 41.6357 52.6664 42.1991 51.4948C42.9399 49.9504 44.9739 49.6163 45.9679 48.0699C46.9618 46.5236 46.417 44.5313 47.5115 43.2133Z" fill="#79AC53"/>
<path d="M48.2412 58.5416C48.244 58.54 48.2436 58.5342 48.2447 58.5327C48.374 58.2416 48.5934 57.9995 48.8705 57.842C49.1476 57.6846 49.4678 57.6201 49.7841 57.658C49.8333 57.6624 49.8795 57.6717 49.9293 57.6808C50.4186 57.7722 50.8708 58.0093 51.29 58.2809C53.0566 59.4316 54.3401 61.1888 54.8984 63.2214C55.0758 63.8781 55.1651 64.6106 54.844 65.2114C54.4871 65.8734 53.6802 66.2055 52.9292 66.1621C52.1782 66.1187 51.4817 65.7519 50.8795 65.3022C49.5502 64.3022 48.5946 62.886 48.1651 61.2791C47.9279 60.3788 47.8697 59.394 48.2412 58.5416Z" fill="#79AC53"/>
<path d="M88.8916 125.173C88.6489 124.736 88.4411 124.268 88.3826 123.774C88.3759 123.723 88.372 123.674 88.369 123.626C88.3528 123.308 88.4395 122.993 88.6166 122.727C88.7936 122.462 89.0514 122.26 89.3523 122.151C89.3523 122.151 89.3584 122.151 89.3601 122.151C90.2408 121.838 91.2234 121.965 92.1074 122.264C93.6877 122.803 95.0416 123.853 95.954 125.248C96.3629 125.879 96.6821 126.598 96.6755 127.351C96.6689 128.104 96.2815 128.885 95.5937 129.196C94.9717 129.477 94.2424 129.336 93.5984 129.115C91.5996 128.417 89.9257 127.015 88.8916 125.173Z" fill="#79AC53"/>
<path d="M92.8266 137C92.1046 137.148 91.3703 136.823 90.744 136.433C88.8066 135.213 87.3808 133.326 86.7346 131.127C86.5861 130.606 86.4804 130.064 86.5366 129.523C86.5426 129.468 86.5502 129.417 86.5598 129.364C86.6187 129.023 86.7856 128.71 87.0358 128.471C87.2859 128.233 87.6062 128.081 87.9491 128.038C87.9518 128.038 87.9546 128.038 87.9573 128.038C88.9609 127.918 89.9655 128.289 90.8262 128.819C92.3609 129.769 93.5339 131.206 94.1585 132.902C94.4396 133.669 94.6005 134.509 94.4126 135.304C94.2248 136.099 93.6299 136.836 92.8266 137Z" fill="#79AC53"/>
<path d="M84.4559 140.757C83.6801 140.489 83.0555 139.9 82.5553 139.251C81.4536 137.812 80.8671 136.048 80.8894 134.238C80.9051 133.225 81.1338 132.175 81.7743 131.391C81.7768 131.388 81.7801 131.386 81.7805 131.384C82.0017 131.117 82.3031 130.927 82.6402 130.844C82.9774 130.76 83.3325 130.787 83.6535 130.919C83.7042 130.94 83.7536 130.963 83.8009 130.986C84.2893 131.226 84.6949 131.607 85.055 132.016C86.5716 133.743 87.4024 135.962 87.3909 138.257C87.3839 138.994 87.2615 139.791 86.7477 140.324C86.1769 140.912 85.2318 141.025 84.4559 140.757Z" fill="#79AC53"/>
<path d="M82.7662 115.673C83.973 115.189 85.416 115.748 86.2592 116.739C87.1023 117.729 87.4347 119.06 87.5399 120.355C87.7283 122.681 87.0218 125.78 85.7858 127.752C85.4592 128.271 85.0061 128.698 84.4691 128.994C83.932 129.29 83.3287 129.444 82.7157 129.442C80.3883 129.429 77.3963 128.362 75.5345 126.956C74.4968 126.172 73.554 125.176 73.1701 123.935C72.7863 122.693 73.09 121.174 74.1444 120.413C75.5327 119.41 77.4794 120.088 79.0911 119.204C80.7027 118.319 81.1752 116.309 82.7662 115.673Z" fill="#79AC53"/>
<path d="M76.0888 129.49C76.0921 129.49 76.0946 129.485 76.0962 129.484C76.3488 129.29 76.6571 129.182 76.9758 129.176C77.2944 129.17 77.6066 129.266 77.8664 129.45C77.9075 129.478 77.9437 129.508 77.9831 129.54C78.3695 129.854 78.6536 130.278 78.8922 130.717C79.8951 132.571 80.1838 134.728 79.7039 136.78C79.5462 137.442 79.275 138.128 78.706 138.503C78.0764 138.914 77.2088 138.821 76.5697 138.424C75.9305 138.027 75.4936 137.373 75.1793 136.69C74.4886 135.177 74.3252 133.476 74.715 131.859C74.9364 130.955 75.3555 130.062 76.0888 129.49Z" fill="#79AC53"/>
<path d="M96.8795 208.749C96.9013 208.249 96.9684 207.742 97.177 207.289C97.1976 207.243 97.22 207.199 97.2425 207.157C97.395 206.877 97.6337 206.653 97.9233 206.519C98.213 206.385 98.5384 206.348 98.8516 206.413C98.8516 206.413 98.8568 206.416 98.8583 206.417C99.7728 206.61 100.544 207.232 101.142 207.948C102.207 209.234 102.813 210.837 102.862 212.502C102.881 213.254 102.777 214.034 102.378 214.673C101.979 215.312 101.241 215.775 100.492 215.681C99.8147 215.595 99.2668 215.094 98.8331 214.569C97.4936 212.929 96.7988 210.86 96.8795 208.749Z" fill="#79AC53"/>
<path d="M94.0549 220.889C93.3621 220.637 92.9056 219.977 92.5757 219.317C91.5613 217.264 91.3316 214.91 91.9296 212.698C92.075 212.176 92.2685 211.658 92.5988 211.227C92.6325 211.183 92.666 211.143 92.7016 211.104C92.9301 210.844 93.2359 210.664 93.574 210.591C93.9121 210.518 94.2645 210.556 94.5791 210.699C94.5817 210.7 94.5841 210.701 94.5861 210.703C95.5044 211.125 96.167 211.967 96.6244 212.868C97.4362 214.48 97.6853 216.319 97.3317 218.091C97.1707 218.891 96.8688 219.692 96.2933 220.271C95.7178 220.851 94.8254 221.169 94.0549 220.889Z" fill="#79AC53"/>
<path d="M84.9547 219.718C84.4331 219.084 84.2082 218.256 84.1211 217.441C83.9335 215.639 84.3555 213.827 85.32 212.296C85.8629 211.441 86.6063 210.665 87.5621 210.331C87.5661 210.33 87.5698 210.33 87.5714 210.328C87.8995 210.216 88.2553 210.212 88.5864 210.317C88.9176 210.422 89.2066 210.63 89.4111 210.911C89.4432 210.955 89.4736 211 89.5021 211.044C89.7928 211.505 89.9395 212.041 90.033 212.578C90.4237 214.843 89.9722 217.169 88.7635 219.12C88.3721 219.745 87.8513 220.361 87.1348 220.546C86.3409 220.749 85.4762 220.352 84.9547 219.718Z" fill="#79AC53"/>
<path d="M96.6211 197.448C97.903 197.666 98.8413 198.896 99.0425 200.182C99.2437 201.467 98.8318 202.775 98.2448 203.934C97.1901 206.016 94.9682 208.289 92.8841 209.325C92.3345 209.596 91.7248 209.724 91.1124 209.695C90.5001 209.667 89.9051 209.483 89.3834 209.161C87.4057 207.934 85.4121 205.461 84.5595 203.289C84.0843 202.079 83.801 200.737 84.1224 199.478C84.4437 198.219 85.4967 197.082 86.7931 196.985C88.501 196.854 89.8068 198.449 91.6429 198.538C93.479 198.626 94.9325 197.159 96.6211 197.448Z" fill="#79AC53"/>
<path d="M83.7082 205.739C83.711 205.741 83.7158 205.738 83.7177 205.738C84.0345 205.705 84.3537 205.774 84.6286 205.935C84.9034 206.096 85.1193 206.341 85.2445 206.634C85.2652 206.679 85.2803 206.724 85.2973 206.772C85.4627 207.241 85.4832 207.751 85.4574 208.25C85.3435 210.355 84.4626 212.345 82.981 213.844C82.5007 214.326 81.9109 214.77 81.23 214.792C80.4783 214.813 79.7874 214.28 79.4498 213.608C79.1121 212.936 79.0818 212.149 79.1704 211.403C79.3723 209.752 80.1216 208.216 81.2989 207.041C81.9602 206.386 82.7842 205.844 83.7082 205.739Z" fill="#79AC53"/>
<path d="M83.6568 284.59C83.8453 284.127 84.079 283.671 84.4274 283.315C84.4624 283.279 84.4983 283.245 84.5337 283.212C84.7715 283 85.0713 282.87 85.3892 282.841C85.707 282.812 86.026 282.886 86.2993 283.053C86.2993 283.053 86.3031 283.057 86.3042 283.059C87.1006 283.548 87.618 284.393 87.9402 285.269C88.5117 286.837 88.5433 288.551 88.03 290.136C87.7953 290.85 87.4351 291.55 86.8446 292.018C86.2541 292.485 85.4031 292.673 84.7294 292.333C84.1202 292.025 83.7727 291.368 83.5407 290.728C82.8301 288.734 82.8714 286.551 83.6568 284.59Z" fill="#79AC53"/>
<path d="M76.9165 295.074C76.3485 294.605 76.1405 293.829 76.0516 293.097C75.7861 290.823 76.3608 288.529 77.6676 286.646C77.9798 286.203 78.3362 285.781 78.7922 285.485C78.8387 285.456 78.8836 285.429 78.9305 285.404C79.233 285.236 79.5815 285.169 79.9244 285.214C80.2673 285.259 80.5865 285.413 80.8348 285.654C80.837 285.655 80.8387 285.657 80.8399 285.66C81.5629 286.366 81.9043 287.381 82.0322 288.384C82.255 290.175 81.8716 291.99 80.9431 293.54C80.5222 294.241 79.9689 294.893 79.2321 295.245C78.4953 295.598 77.5481 295.597 76.9165 295.074Z" fill="#79AC53"/>
<path d="M68.7391 290.913C68.4609 290.141 68.5275 289.285 68.7193 288.488C69.1483 286.728 70.1545 285.164 71.5774 284.046C72.3764 283.423 73.3371 282.942 74.3495 282.949C74.3539 282.949 74.3573 282.95 74.3594 282.949C74.7061 282.954 75.0425 283.07 75.3191 283.28C75.5957 283.49 75.798 283.783 75.8962 284.116C75.9115 284.169 75.9251 284.221 75.937 284.273C76.0562 284.804 76.0139 285.359 75.9215 285.896C75.5285 288.16 74.3213 290.199 72.5273 291.63C71.9486 292.087 71.2513 292.492 70.514 292.426C69.6981 292.351 69.0173 291.685 68.7391 290.913Z" fill="#79AC53"/>
<path d="M87.2114 273.86C88.3455 274.496 88.8157 275.97 88.5732 277.248C88.3308 278.526 87.5031 279.62 86.5607 280.514C84.8678 282.12 82.0111 283.515 79.7003 283.789C79.0913 283.861 78.4742 283.776 77.907 283.543C77.3399 283.311 76.8413 282.937 76.4581 282.459C75.0079 280.639 73.9614 277.639 73.8883 275.307C73.8476 274.008 74.0318 272.648 74.7576 271.571C75.4833 270.493 76.8572 269.776 78.1109 270.12C79.7631 270.572 80.4569 272.513 82.1566 273.213C83.8562 273.913 85.7183 273.02 87.2114 273.86Z" fill="#79AC53"/>
<path d="M72.263 277.329C72.2651 277.331 72.2708 277.33 72.2724 277.331C72.582 277.406 72.8595 277.578 73.0642 277.822C73.2688 278.067 73.3897 278.37 73.4092 278.688C73.4137 278.737 73.4128 278.784 73.4128 278.835C73.4108 279.333 73.2587 279.82 73.0667 280.281C72.2518 282.226 70.7535 283.804 68.8542 284.718C68.2399 285.01 67.5353 285.23 66.8867 285.022C66.1714 284.789 65.6999 284.055 65.6078 283.309C65.5157 282.562 65.7515 281.811 66.0858 281.138C66.8309 279.651 68.0526 278.456 69.5563 277.745C70.3994 277.35 71.3578 277.117 72.263 277.329Z" fill="#79AC53"/>
<path d="M46.8519 351.19C47.2496 350.886 47.6821 350.613 48.1629 350.483C48.2118 350.469 48.2599 350.459 48.3069 350.449C48.6196 350.386 48.944 350.427 49.2324 350.563C49.5208 350.7 49.758 350.926 49.909 351.208C49.909 351.208 49.9099 351.214 49.9101 351.215C50.3476 352.041 50.3642 353.032 50.197 353.95C49.8925 355.592 49.0496 357.084 47.8024 358.188C47.2374 358.685 46.5715 359.105 45.8255 359.207C45.0795 359.31 44.2508 359.04 43.8435 358.404C43.475 357.83 43.5092 357.088 43.6344 356.418C44.0352 354.34 45.1794 352.48 46.8519 351.19Z" fill="#79AC53"/>
<path d="M35.7208 356.798C35.47 356.105 35.6847 355.331 35.9801 354.655C36.9064 352.561 38.5666 350.877 40.6486 349.919C41.1421 349.697 41.6639 349.513 42.2067 349.49C42.2618 349.488 42.314 349.489 42.3672 349.49C42.7132 349.499 43.0472 349.619 43.3197 349.832C43.5923 350.045 43.789 350.34 43.8807 350.673C43.8818 350.675 43.8822 350.678 43.8819 350.681C44.146 351.657 43.9246 352.704 43.5257 353.633C42.8078 355.289 41.5556 356.658 39.9685 357.522C39.2503 357.911 38.4424 358.192 37.6286 358.121C36.8149 358.051 35.9994 357.569 35.7208 356.798Z" fill="#79AC53"/>
<path d="M30.7899 349.06C30.9425 348.254 31.4345 347.551 32.0044 346.962C33.268 345.663 34.9291 344.827 36.7226 344.586C37.7275 344.455 38.7992 344.529 39.6677 345.049C39.6717 345.051 39.6738 345.054 39.6763 345.054C39.9725 345.235 40.2034 345.505 40.3349 345.827C40.4665 346.148 40.4919 346.503 40.4074 346.84C40.3938 346.893 40.3788 346.946 40.3631 346.996C40.196 347.514 39.8777 347.97 39.5254 348.386C38.0368 350.137 35.9611 351.281 33.6891 351.602C32.9583 351.702 32.1521 351.696 31.5504 351.265C30.886 350.786 30.6373 349.867 30.7899 349.06Z" fill="#79AC53"/>
<path d="M55.3636 343.752C56.0174 344.876 55.6738 346.385 54.8158 347.362C53.9579 348.34 52.6893 348.862 51.4232 349.154C49.1493 349.678 45.9802 349.428 43.8502 348.491C43.2894 348.243 42.8008 347.857 42.4304 347.368C42.0601 346.88 41.8201 346.305 41.733 345.698C41.4083 343.393 42.0301 340.278 43.1515 338.232C43.7766 337.092 44.6255 336.015 45.7981 335.455C46.9706 334.895 48.5182 334.975 49.4234 335.908C50.6174 337.137 50.2293 339.161 51.3377 340.627C52.4462 342.094 54.5041 342.27 55.3636 343.752Z" fill="#79AC53"/>
<path d="M40.7247 339.148C40.7252 339.152 40.7308 339.153 40.7319 339.155C40.9605 339.377 41.112 339.666 41.1642 339.98C41.2164 340.295 41.1664 340.618 41.0217 340.901C41.0006 340.946 40.976 340.986 40.9502 341.03C40.6957 341.458 40.3171 341.8 39.9175 342.1C38.228 343.361 36.1358 343.959 34.0355 343.782C33.3578 343.722 32.6395 343.553 32.1864 343.045C31.6882 342.481 31.6549 341.609 31.9547 340.919C32.2546 340.229 32.8391 339.702 33.469 339.292C34.8662 338.389 36.5252 337.981 38.1815 338.132C39.1085 338.22 40.0528 338.506 40.7247 339.148Z" fill="#79AC53"/>
</svg>
