<svg width="18" height="18" viewBox="0 0 18 18" fill="none" xmlns="http://www.w3.org/2000/svg">
<path d="M7.30175 17.3797V16.8343C7.30175 16.3314 7.30175 15.8282 7.30175 15.3245C7.30175 14.984 7.1608 14.8135 6.84246 14.6955C6.46059 14.5535 6.07872 14.3966 5.7076 14.2275C5.42294 14.0984 5.20805 14.1175 4.98448 14.3417C4.49846 14.8278 4.01452 15.3173 3.53718 15.7977L1.56325 13.8127C1.67989 13.7085 1.82604 13.587 1.96109 13.4548C2.30825 13.1145 2.65019 12.7698 2.99353 12.4265C3.26293 12.1571 3.28028 11.9564 3.12198 11.6155C2.95222 11.25 2.80468 10.8733 2.66165 10.4959C2.55299 10.2088 2.38705 10.0755 2.07982 10.0748C1.39175 10.0748 0.703687 10.0748 0 10.0748V7.30349H0.190241C0.809222 7.30349 1.4282 7.30349 2.04718 7.30349C2.40406 7.30349 2.54987 7.1799 2.6738 6.84871C2.81718 6.46684 2.97826 6.08879 3.14767 5.71629C3.26952 5.44932 3.2473 5.21291 3.03936 5.00322C2.59083 4.55215 2.14149 4.102 1.69135 3.65278C1.65108 3.61251 1.61254 3.57016 1.58199 3.53822C2.23361 2.88835 2.87862 2.24437 3.54586 1.57852C3.81664 1.85625 4.10513 2.15272 4.3957 2.44641C4.59462 2.64811 4.79424 2.84912 4.99698 3.047C5.21464 3.2598 5.43057 3.27751 5.70899 3.15114C6.09272 2.97919 6.48153 2.81903 6.87544 2.67068C7.15317 2.56653 7.30036 2.38219 7.30106 2.0694C7.30279 1.45042 7.30106 0.831441 7.30106 0.21246V0H10.0623V0.189896C10.0623 0.820333 10.0623 1.45077 10.0623 2.08121C10.0623 2.37768 10.2078 2.56271 10.4827 2.66825C10.8754 2.81891 11.2659 2.97687 11.6492 3.14941C11.9269 3.27438 12.1442 3.26327 12.3623 3.04908C12.8243 2.59569 13.2801 2.13571 13.7391 1.6785C13.7738 1.64379 13.8141 1.60907 13.8394 1.58303L15.8008 3.53996C15.4565 3.87809 15.1065 4.22108 14.7594 4.56546C14.607 4.71543 14.4542 4.8654 14.3063 5.01989C14.1265 5.20735 14.1022 5.45904 14.2064 5.69233C14.3775 6.07663 14.5434 6.46337 14.6924 6.856C14.816 7.17747 14.9632 7.29863 15.31 7.29932C15.9234 7.29932 16.5365 7.29932 17.1499 7.29932H17.3679V10.0714H17.1794C16.5545 10.0714 15.9296 10.0714 15.3048 10.0714C14.9638 10.0714 14.8146 10.1991 14.6934 10.5227C14.5493 10.9045 14.3893 11.2829 14.2199 11.6551C14.0932 11.9328 14.1182 12.1672 14.3327 12.382C14.7863 12.8359 15.24 13.29 15.6936 13.7443C15.7259 13.7762 15.7557 13.8109 15.7776 13.8349L13.796 15.7932C13.6332 15.6196 13.4409 15.4072 13.2406 15.203C12.9538 14.9093 12.6622 14.6202 12.3702 14.3317C12.1519 14.1157 11.9387 14.0967 11.6589 14.222C11.277 14.3935 10.8855 14.5532 10.4925 14.7028C10.2071 14.8114 10.0627 14.9916 10.062 15.3013C10.062 15.9262 10.062 16.5511 10.062 17.1759V17.3783L7.30175 17.3797ZM4.64288 8.70079C4.6394 10.9181 6.45642 12.7441 8.68552 12.7341C9.48469 12.7335 10.2657 12.4959 10.9299 12.0514C11.594 11.6069 12.1114 10.9754 12.4165 10.2367C12.7217 9.49812 12.8009 8.68558 12.6442 7.90193C12.4874 7.11828 12.1018 6.39871 11.536 5.83427C10.9703 5.26983 10.2498 4.88586 9.46581 4.73095C8.68179 4.57604 7.86944 4.65715 7.13153 4.96401C6.39362 5.27087 5.7633 5.7897 5.32031 6.45486C4.87733 7.12002 4.64157 7.90162 4.64288 8.70079Z" fill="white"/>
</svg>
